<svg width="18" height="17" viewBox="0 0 18 17" fill="none" xmlns="http://www.w3.org/2000/svg">
<path d="M17.5227 9.51375C17.4821 9.68676 17.3991 9.84694 17.2814 9.97988C17.1636 10.1128 17.0148 10.2144 16.8482 10.2754C16.7518 10.2754 16.7411 10.4041 16.7197 10.49C16.4306 11.4662 16.1522 12.4531 15.8738 13.4293C15.7365 13.8926 15.4665 14.3052 15.0972 14.6161C14.728 14.9269 14.2757 15.1223 13.7967 15.1779C13.636 15.1779 13.6253 15.1779 13.7003 15.371L14.0322 16.0361C14.0714 16.0969 14.0922 16.1677 14.0922 16.24C14.0922 16.3123 14.0714 16.3831 14.0322 16.4438C13.9931 16.4955 13.9401 16.535 13.8795 16.5578C13.8188 16.5806 13.753 16.5857 13.6896 16.5725C13.623 16.5589 13.5612 16.528 13.5105 16.4828C13.4597 16.4375 13.4218 16.3797 13.4005 16.3151C13.2399 16.004 13.0686 15.6821 12.9187 15.3603C12.9019 15.3095 12.8684 15.2659 12.8237 15.2366C12.7789 15.2074 12.7256 15.1943 12.6724 15.1994H5.79847C5.74529 15.1943 5.69195 15.2074 5.64721 15.2366C5.60246 15.2659 5.56896 15.3095 5.55221 15.3603C5.40231 15.6821 5.2417 15.9932 5.0811 16.3151C5.05705 16.38 5.01691 16.4376 4.96446 16.4827C4.91201 16.5277 4.84898 16.5586 4.7813 16.5725C4.71788 16.5857 4.65204 16.5806 4.5914 16.5578C4.53075 16.535 4.4778 16.4955 4.43867 16.4438C4.40042 16.3847 4.38006 16.3158 4.38006 16.2453C4.38006 16.1749 4.40042 16.106 4.43867 16.0469C4.53504 15.8216 4.65281 15.5963 4.75988 15.371C4.86695 15.1458 4.82413 15.1994 4.66352 15.1779C4.18263 15.1228 3.72877 14.9264 3.35913 14.6133C2.98949 14.3002 2.7206 13.8845 2.58635 13.4186L1.71908 10.49C1.708 10.4368 1.68486 10.3869 1.65144 10.3441C1.61802 10.3013 1.57522 10.2668 1.52635 10.2432C1.30516 10.1479 1.1225 9.98063 1.00788 9.76846C0.893255 9.55629 0.853358 9.31161 0.894632 9.07392C0.949025 8.83193 1.08544 8.6163 1.28066 8.46373C1.47588 8.31117 1.71783 8.23111 1.96534 8.23717H15.3171C15.3329 8.23886 15.349 8.23697 15.364 8.23163C15.3791 8.2263 15.3928 8.21766 15.4041 8.20635C15.4154 8.19503 15.424 8.18133 15.4293 8.16625C15.4346 8.15116 15.4365 8.13507 15.4348 8.11916C15.4294 8.08721 15.4294 8.05457 15.4348 8.02261V1.47877C15.4454 1.38609 15.4454 1.29252 15.4348 1.19985C15.4181 1.09654 15.3742 0.999559 15.3077 0.918854C15.2411 0.83815 15.1544 0.776627 15.0563 0.740595C14.9582 0.704563 14.8523 0.69532 14.7495 0.713814C14.6467 0.732308 14.5506 0.777874 14.4712 0.845836C14.1714 1.09257 13.9144 1.39294 13.636 1.66114C13.636 1.71477 13.636 1.74696 13.636 1.80059C13.6921 1.85495 13.7319 1.92397 13.7508 1.99981C13.7697 2.07565 13.7671 2.15529 13.7431 2.2297C13.636 2.74462 13.5397 3.30246 13.4326 3.77448C13.4297 3.85646 13.4027 3.93577 13.3551 4.00252C13.3075 4.06928 13.2414 4.12055 13.1649 4.14994C13.0753 4.17784 12.9791 4.17622 12.8905 4.14533C12.8018 4.11444 12.7254 4.0559 12.6724 3.9783L10.7344 1.96151C10.6729 1.91575 10.6274 1.85171 10.6043 1.77852C10.5813 1.70533 10.5818 1.62671 10.6059 1.55386C10.6327 1.47971 10.6802 1.41492 10.743 1.36732C10.8057 1.31972 10.8808 1.29136 10.9593 1.28567L12.5225 1.04966C12.588 1.02955 12.6574 1.02589 12.7246 1.03898C12.7918 1.05208 12.8548 1.08153 12.908 1.12475C13.0043 1.23203 13.0686 1.18912 13.1435 1.12475C13.4219 0.867291 13.6789 0.588373 13.9573 0.33091C14.1952 0.133821 14.4944 0.026001 14.8031 0.026001C15.1119 0.026001 15.411 0.133821 15.649 0.33091C15.8218 0.475137 15.9584 0.658055 16.0476 0.864901C16.1369 1.07175 16.1764 1.29672 16.1629 1.52168V7.95825C16.1629 8.2908 16.1629 8.24789 16.4413 8.24789C16.6873 8.2413 16.9281 8.31984 17.1231 8.47029C17.3182 8.62074 17.4555 8.83391 17.512 9.07392L17.5227 9.51375ZM9.21403 10.3398H2.62918C2.43645 10.3398 2.43645 10.3398 2.47928 10.5329C2.72554 11.3911 2.9718 12.26 3.22877 13.1182C3.31754 13.5219 3.54787 13.8803 3.87794 14.1284C4.208 14.3764 4.6159 14.4976 5.02756 14.4699H13.4005C13.5607 14.4857 13.7221 14.4857 13.8823 14.4699C14.2018 14.4043 14.4958 14.2481 14.7293 14.0199C14.9628 13.7916 15.1259 13.501 15.1993 13.1826L15.9381 10.608C16.0023 10.3827 16.0023 10.3827 15.7668 10.3827L9.21403 10.3398ZM9.21403 9.6103H16.5055C16.5445 9.60897 16.5827 9.59976 16.618 9.58324C16.6533 9.56673 16.6849 9.54323 16.7109 9.51418C16.7369 9.48512 16.7568 9.4511 16.7693 9.41416C16.7819 9.37722 16.7868 9.33812 16.7839 9.2992C16.7871 9.22015 16.76 9.14287 16.7083 9.08308C16.6566 9.02329 16.5841 8.9855 16.5055 8.97737H1.96534C1.92593 8.98009 1.88745 8.99059 1.85211 9.00825C1.81676 9.02592 1.78525 9.05041 1.75938 9.08031C1.73351 9.11022 1.7138 9.14495 1.70137 9.18252C1.68894 9.22008 1.68404 9.25974 1.68695 9.2992C1.68253 9.33952 1.6863 9.38031 1.69804 9.41913C1.70978 9.45794 1.72924 9.49398 1.75525 9.52505C1.78127 9.55613 1.81329 9.5816 1.8494 9.59994C1.88551 9.61828 1.92494 9.6291 1.96534 9.63176H9.22473L9.21403 9.6103ZM12.7795 3.045C12.8315 2.90657 12.8675 2.76258 12.8866 2.61589C12.9722 2.18679 12.9722 2.19752 12.6724 1.88642C12.6397 1.84585 12.5962 1.81529 12.547 1.79822C12.4978 1.78116 12.4448 1.77826 12.394 1.78987L11.8373 1.88642C11.7302 1.88642 11.7195 1.94005 11.8373 2.01515L12.5439 2.74462L12.7795 3.045Z" fill="#A7AEB6"/>
<path d="M9.20316 6.48852C9.21232 6.38962 9.25817 6.29775 9.33164 6.23106C9.53508 6.01651 9.74922 5.80195 9.96336 5.59813C9.99745 5.56107 10.0388 5.53149 10.0849 5.51126C10.131 5.49103 10.1807 5.48059 10.231 5.48059C10.2813 5.48059 10.3311 5.49103 10.3772 5.51126C10.4232 5.53149 10.4646 5.56107 10.4987 5.59813C10.5372 5.63136 10.5681 5.67252 10.5893 5.71881C10.6104 5.76509 10.6214 5.81541 10.6214 5.86632C10.6214 5.91723 10.6104 5.96755 10.5893 6.01383C10.5681 6.06011 10.5372 6.10128 10.4987 6.13451C10.2846 6.35979 10.0704 6.57434 9.84558 6.78889C9.79389 6.84913 9.72295 6.88953 9.64485 6.90323C9.56675 6.91692 9.48633 6.90305 9.4173 6.86399C9.34279 6.83726 9.28026 6.78474 9.241 6.71589C9.20173 6.64704 9.18831 6.56641 9.20316 6.48852Z" fill="#A7AEB6"/>
<path d="M9.22467 4.47183C9.22073 4.55297 9.1863 4.62961 9.12831 4.68638C8.89275 4.92239 8.67861 5.1584 8.43235 5.37295C8.38785 5.41911 8.33166 5.45227 8.2698 5.46891C8.20794 5.48554 8.14273 5.48502 8.08114 5.46739C8.01956 5.44976 7.96391 5.41569 7.92016 5.36882C7.87641 5.32195 7.84619 5.26405 7.83275 5.20131C7.81637 5.14494 7.81569 5.08515 7.83079 5.02843C7.84589 4.9717 7.87619 4.92019 7.91841 4.87948C8.15396 4.64347 8.37881 4.40746 8.62507 4.18218C8.67283 4.12622 8.73884 4.08904 8.81138 4.07725C8.88392 4.06547 8.95828 4.07984 9.02123 4.11782C9.08852 4.14721 9.1446 4.19747 9.18123 4.26121C9.21785 4.32494 9.23308 4.39877 9.22467 4.47183Z" fill="#A7AEB6"/>
<path d="M11.3019 3.77443C11.2957 3.86033 11.2575 3.94074 11.1948 3.99971L10.531 4.68628C10.466 4.73943 10.3847 4.76847 10.3008 4.76847C10.2169 4.76847 10.1356 4.73943 10.0706 4.68628C10.0058 4.64088 9.95865 4.57441 9.93718 4.49815C9.91572 4.4219 9.92124 4.34055 9.95281 4.26791C10.1968 3.97339 10.4694 3.70388 10.7665 3.46333C10.8179 3.42584 10.8797 3.40564 10.9432 3.40564C11.0067 3.40564 11.0686 3.42584 11.1199 3.46333C11.1745 3.49494 11.22 3.54023 11.2519 3.59477C11.2839 3.64931 11.3011 3.71122 11.3019 3.77443Z" fill="#A7AEB6"/>
<path d="M4.8027 13.8048C4.6073 13.7927 4.4198 13.7231 4.26365 13.6048C4.10749 13.4865 3.9896 13.3247 3.92472 13.1397C3.7427 12.5926 3.5928 12.0669 3.4429 11.4769C3.41645 11.3816 3.4286 11.2797 3.47672 11.1933C3.52483 11.1069 3.60503 11.0431 3.69987 11.0156C3.74775 11.0047 3.79734 11.0035 3.84566 11.0123C3.89398 11.0211 3.94003 11.0395 3.98104 11.0666C4.02205 11.0936 4.05717 11.1287 4.0843 11.1698C4.11142 11.2108 4.12998 11.2569 4.13886 11.3052C4.27805 11.7665 4.41724 12.2278 4.54573 12.6998C4.55719 12.8011 4.60262 12.8956 4.67458 12.9677C4.74654 13.0398 4.84077 13.0853 4.94189 13.0968C4.98836 13.1008 5.03357 13.114 5.07492 13.1357C5.11627 13.1573 5.15293 13.1869 5.18279 13.2228C5.21265 13.2587 5.23513 13.3002 5.24891 13.3448C5.26269 13.3895 5.26752 13.4364 5.2631 13.483C5.25406 13.5344 5.23496 13.5836 5.20691 13.6276C5.17885 13.6717 5.14239 13.7098 5.09961 13.7397C5.05684 13.7696 5.00859 13.7907 4.95764 13.8019C4.90668 13.8131 4.85403 13.814 4.8027 13.8048Z" fill="#A7AEB6"/>
</svg>
