<svg width="24" height="15" viewBox="0 0 24 15" fill="none" xmlns="http://www.w3.org/2000/svg">
<g clip-path="url(#clip0_101_953)">
<path d="M0.676758 9.40883C0.727038 9.32529 0.800045 9.25778 0.887256 9.21417C0.974466 9.17057 1.07228 9.15267 1.16928 9.16257H23.1616C23.2585 9.15394 23.3558 9.1724 23.4428 9.21589C23.5297 9.25937 23.6029 9.32617 23.6541 9.40883V14.3234C23.5901 14.4052 23.5065 14.4696 23.4111 14.5108C23.3157 14.5519 23.2115 14.5685 23.1081 14.5589H1.23353C1.12834 14.5704 1.02198 14.5547 0.924543 14.5135C0.827103 14.4723 0.74181 14.4068 0.676758 14.3234L0.676758 9.40883ZM12.1333 13.6917H22.6691C22.6924 13.6953 22.7163 13.6934 22.7387 13.6861C22.7612 13.6788 22.7816 13.6663 22.7983 13.6496C22.815 13.6329 22.8275 13.6125 22.8348 13.59C22.8421 13.5675 22.8441 13.5437 22.8404 13.5203V10.1583C22.8441 10.135 22.8421 10.1111 22.8348 10.0887C22.8275 10.0662 22.815 10.0458 22.7983 10.0291C22.7816 10.0124 22.7612 9.99989 22.7387 9.99258C22.7163 9.98526 22.6924 9.98335 22.6691 9.98701H21.9517C21.7911 9.98701 21.7376 10.0513 21.7483 10.2012C21.759 10.3794 21.759 10.5582 21.7483 10.7365C21.74 10.8426 21.6906 10.9412 21.6105 11.0112C21.5305 11.0813 21.4262 11.1172 21.32 11.1113C21.215 11.1005 21.1179 11.0503 21.0484 10.9708C20.9788 10.8914 20.942 10.7885 20.9452 10.683C20.9345 10.5225 20.9345 10.3616 20.9452 10.2012C20.9452 10.0405 20.8917 9.97631 20.7311 9.98701C20.5705 9.99772 20.078 9.98701 19.746 9.98701C19.4141 9.98701 19.4677 10.062 19.4677 10.2654C19.4677 10.6616 19.4677 11.047 19.4677 11.4325C19.4677 11.8179 19.2749 11.8822 19.0394 11.8715C18.8038 11.8608 18.6646 11.6787 18.6646 11.3789V10.2012C18.6646 10.0405 18.6111 9.98701 18.4612 9.98701H17.3905C17.2192 9.98701 17.1656 10.0513 17.1764 10.2119C17.1871 10.3687 17.1871 10.5261 17.1764 10.683C17.1835 10.788 17.1485 10.8916 17.0792 10.9709C17.01 11.0503 16.912 11.0988 16.807 11.1059C16.7019 11.113 16.5983 11.0781 16.519 11.0088C16.4397 10.9395 16.3911 10.8416 16.384 10.7365C16.368 10.5835 16.368 10.4292 16.384 10.2761C16.384 10.062 16.384 9.97631 16.1056 9.98701C15.8273 9.99772 15.4846 9.98701 15.1634 9.98701C14.8422 9.98701 14.9065 10.0405 14.9065 10.244C14.9065 10.6294 14.9065 11.0256 14.9065 11.4218C14.914 11.4763 14.91 11.5319 14.8948 11.5848C14.8796 11.6378 14.8536 11.687 14.8183 11.7293C14.7831 11.7716 14.7394 11.8061 14.69 11.8306C14.6407 11.8551 14.5867 11.869 14.5317 11.8715C14.4755 11.8729 14.4195 11.8632 14.367 11.843C14.3145 11.8228 14.2665 11.7924 14.2257 11.7536C14.1849 11.7148 14.1522 11.6684 14.1294 11.617C14.1066 11.5656 14.0941 11.5101 14.0927 11.4539C14.0874 11.379 14.0874 11.3039 14.0927 11.229C14.0927 10.8864 14.0927 10.5438 14.0927 10.1583C14.0927 10.0191 14.0927 9.94419 13.8893 9.94419H12.8186C12.6901 9.94419 12.6366 9.99772 12.6366 10.1262C12.6366 10.2547 12.6366 10.4581 12.6366 10.6187C12.6409 10.6753 12.6337 10.7322 12.6154 10.7859C12.597 10.8396 12.568 10.889 12.5299 10.9311C12.4918 10.9732 12.4455 11.0071 12.3939 11.0307C12.3423 11.0543 12.2864 11.0671 12.2297 11.0684C12.0048 11.0684 11.8442 10.8971 11.8228 10.6187C11.8121 10.4654 11.8121 10.3116 11.8228 10.1583C11.8228 9.99772 11.7693 9.93348 11.6087 9.94419H10.7093C10.2489 9.94419 10.281 9.94419 10.281 10.3618C10.281 10.7793 10.281 11.047 10.281 11.4325C10.2863 11.4968 10.2762 11.5615 10.2515 11.6212C10.2269 11.6808 10.1884 11.7338 10.1392 11.7756C10.09 11.8175 10.0316 11.847 9.96876 11.8618C9.90591 11.8766 9.84044 11.8763 9.77777 11.8608C9.67857 11.8354 9.59214 11.7745 9.53489 11.6896C9.47765 11.6048 9.45358 11.5018 9.46726 11.4003C9.46726 11.0042 9.46726 10.5973 9.46726 10.2012C9.46726 10.0405 9.46726 9.97631 9.26383 9.98701H8.17171C8.02181 9.98701 7.95757 10.0513 7.96827 10.2012C7.9896 10.3861 7.9896 10.5729 7.96827 10.7579C7.95744 10.8592 7.90801 10.9524 7.83025 11.0182C7.75249 11.084 7.65238 11.1173 7.5507 11.1113C7.44845 11.1032 7.35303 11.0567 7.28355 10.9813C7.21406 10.9059 7.17563 10.807 7.17595 10.7044V10.1904C7.17595 10.0405 7.17595 9.98701 6.97252 9.98701C6.62989 9.98701 6.29797 9.98701 5.90181 9.98701C5.50565 9.98701 5.62342 10.062 5.62342 10.2761C5.62342 10.6723 5.62342 11.0791 5.62342 11.4753C5.62632 11.5259 5.61919 11.5766 5.60244 11.6245C5.5857 11.6724 5.55967 11.7165 5.52585 11.7543C5.49203 11.7921 5.45109 11.8228 5.40536 11.8448C5.35964 11.8667 5.31003 11.8794 5.25938 11.8822C5.1577 11.8882 5.05759 11.8549 4.97983 11.7891C4.90207 11.7233 4.85264 11.6301 4.84181 11.5288C4.83126 11.4184 4.83126 11.3073 4.84181 11.1969V10.2012C4.84181 10.062 4.84181 9.98701 4.63837 9.98701H3.56767C3.43918 9.98701 3.37494 10.0405 3.38565 10.169V10.6401C3.38565 10.9185 3.22504 11.1005 3.00019 11.1113C2.77534 11.122 2.59332 10.9507 2.5612 10.6723C2.55049 10.5369 2.55049 10.4008 2.5612 10.2654C2.5612 10.062 2.50767 9.9656 2.28282 9.98701C2.09738 9.99772 1.91149 9.99772 1.72605 9.98701C1.52262 9.98701 1.45837 10.0405 1.45837 10.2547C1.45837 11.3254 1.45837 12.3961 1.45837 13.4026C1.45837 13.7345 1.45837 13.7345 1.79029 13.7345L12.1333 13.6917Z" fill="#A7AEB6"/>
<path d="M1.17999 0.757568C1.27682 0.806913 1.35634 0.884559 1.40798 0.980186C1.45962 1.07581 1.48093 1.18489 1.46908 1.29292C1.46908 3.35939 1.46908 5.43656 1.46908 7.51373C1.46908 7.72787 1.46908 7.9206 1.22282 8.00626C0.976556 8.09191 0.837364 8.00626 0.698172 7.82423C0.683896 5.56147 0.676758 3.28801 0.676758 1.00383C0.676758 0.811104 0.676758 0.757568 0.912313 0.757568H1.17999Z" fill="#A7AEB6"/>
<path d="M23.6327 7.84564C23.5916 7.89388 23.5449 7.93701 23.4935 7.97412C23.4398 8.0193 23.3748 8.04896 23.3055 8.0599C23.2361 8.07084 23.1651 8.06265 23.1001 8.03621C23.0351 8.00976 22.9786 7.96607 22.9366 7.90984C22.8946 7.85362 22.8687 7.78699 22.8618 7.71715C22.8566 7.65659 22.8566 7.5957 22.8618 7.53513V1.31432C22.8426 1.20138 22.8616 1.08525 22.9159 0.984375C22.9702 0.8835 23.0567 0.803667 23.1616 0.757556C23.3222 0.757556 23.5577 0.693314 23.6327 0.757556C23.7076 0.821799 23.6327 1.06806 23.6327 1.22867V7.84564Z" fill="#A7AEB6"/>
<path d="M12.1761 4.20523H19.2749C19.5854 4.20523 19.5854 4.20523 19.5854 3.90544V2.4921C19.5798 2.42083 19.5798 2.34923 19.5854 2.27796C19.5924 2.20244 19.6215 2.13066 19.6692 2.07162C19.7168 2.01258 19.7808 1.96889 19.8531 1.94604C19.9256 1.92019 20.0046 1.91874 20.0781 1.94194C20.1515 1.96513 20.2154 2.01169 20.2599 2.07453L20.6026 2.51352L21.9624 4.26948C22.0087 4.31257 22.0457 4.36476 22.071 4.42279C22.0963 4.48082 22.1094 4.54345 22.1094 4.60675C22.1094 4.67005 22.0963 4.73268 22.071 4.79071C22.0457 4.84874 22.0087 4.90093 21.9624 4.94402L20.3028 7.08544C20.2583 7.16413 20.189 7.22579 20.1056 7.26069C20.0222 7.29559 19.9296 7.30174 19.8424 7.27816C19.7523 7.24519 19.6759 7.18296 19.6255 7.10142C19.575 7.01989 19.5533 6.92377 19.564 6.82847V5.34018C19.564 5.02968 19.564 5.02968 19.2535 5.02968H4.95954C4.7454 5.02968 4.67045 5.09392 4.68116 5.30806C4.68116 5.75776 4.68116 6.21816 4.68116 6.66786V6.84988C4.68829 6.93792 4.6658 7.02582 4.61725 7.09961C4.5687 7.1734 4.49689 7.22885 4.41322 7.25715C4.32955 7.28545 4.23882 7.28497 4.15545 7.2558C4.07208 7.22663 4.00085 7.17044 3.95308 7.09614L3.34277 6.30382L2.36843 5.04039C2.31254 4.99522 2.26746 4.93813 2.23649 4.87329C2.20553 4.80844 2.18945 4.7375 2.18945 4.66564C2.18945 4.59378 2.20553 4.52283 2.23649 4.45799C2.26746 4.39315 2.31254 4.33606 2.36843 4.29089L3.94237 2.25655C4.07085 2.08523 4.21005 1.91392 4.45631 1.99958C4.70257 2.08523 4.72399 2.29938 4.72399 2.51352V3.96968C4.72399 4.25877 4.72399 4.25877 5.02378 4.25877L12.1761 4.20523ZM3.88883 5.73635V3.48786L3.10722 4.55857C3.09149 4.57163 3.07884 4.588 3.07015 4.6065C3.06147 4.62501 3.05697 4.6452 3.05697 4.66564C3.05697 4.68608 3.06147 4.70627 3.07015 4.72478C3.07884 4.74328 3.09149 4.75965 3.10722 4.77271L3.88883 5.73635ZM20.3456 3.48786V5.73635C20.6347 5.3616 20.881 5.02968 21.1379 4.66564C21.1379 4.66564 21.2022 4.55857 21.1379 4.50503L20.3456 3.48786Z" fill="#A7AEB6"/>
</g>
<defs>
<clipPath id="clip0_101_953">
<rect width="22.9774" height="13.8014" fill="white" transform="translate(0.676758 0.757568)"/>
</clipPath>
</defs>
</svg>
