<svg width="22" height="13" viewBox="0 0 22 13" fill="none" xmlns="http://www.w3.org/2000/svg">
<g clip-path="url(#clip0_101_928)">
<path d="M7.25173 0.828247H13.7616C14.2647 0.923099 14.7387 1.13415 15.1458 1.44459C15.5529 1.75503 15.8819 2.15627 16.1065 2.61633C16.5348 3.43007 17.0166 4.21168 17.4663 5.004C17.5454 5.16399 17.6632 5.30166 17.8091 5.40451C17.9549 5.50736 18.1242 5.57212 18.3014 5.59289L18.8903 5.68926C19.5379 5.74058 20.1595 5.96627 20.6891 6.34239C21.3325 6.82219 21.7659 7.53174 21.899 8.3232V10.1434V10.2612C21.8032 10.6526 21.5699 10.9966 21.2417 11.2305C20.9135 11.4644 20.5122 11.5725 20.1109 11.5353H19.2329C19.1558 11.5264 19.0778 11.5423 19.0104 11.5809C18.943 11.6194 18.8897 11.6785 18.8582 11.7495C18.6475 12.0927 18.3523 12.3762 18.0009 12.5729C17.6494 12.7696 17.2534 12.8728 16.8506 12.8728C16.4479 12.8728 16.0518 12.7696 15.7004 12.5729C15.3489 12.3762 15.0537 12.0927 14.843 11.7495C14.8084 11.6786 14.7529 11.6201 14.684 11.5818C14.615 11.5435 14.536 11.5273 14.4576 11.5353H7.88345C7.80501 11.5273 7.726 11.5435 7.65708 11.5818C7.58815 11.6201 7.53263 11.6786 7.49799 11.7495C7.28731 12.0927 6.99214 12.3762 6.64067 12.5729C6.2892 12.7696 5.89317 12.8728 5.49042 12.8728C5.08767 12.8728 4.69164 12.7696 4.34017 12.5729C3.9887 12.3762 3.69352 12.0927 3.48284 11.7495C3.45138 11.6785 3.39805 11.6194 3.33063 11.5809C3.26321 11.5423 3.18523 11.5264 3.1081 11.5353C2.72668 11.5621 2.34385 11.5621 1.96244 11.5353C1.59747 11.4978 1.255 11.3411 0.987944 11.0896C0.720885 10.838 0.544089 10.5055 0.484863 10.1434L0.484863 7.18825C0.56466 6.83686 0.749995 6.51828 1.01601 6.27523C1.28203 6.03218 1.616 5.87628 1.97315 5.82845C2.25153 5.82845 2.52991 5.68926 2.79759 5.62501C2.94297 5.59248 3.07995 5.52996 3.19979 5.44147C3.31963 5.35297 3.41968 5.24044 3.49355 5.11108C3.64345 4.83269 3.81476 4.55431 3.96466 4.27592C4.28587 3.72986 4.61779 3.20522 4.90688 2.62703C5.12519 2.16139 5.45211 1.75497 5.86015 1.44196C6.26819 1.12894 6.74543 0.918468 7.25173 0.828247V0.828247ZM20.1002 6.80279C19.8928 6.6534 19.6553 6.55108 19.4043 6.503C19.083 6.43875 18.7618 6.3638 18.4406 6.33168C18.0926 6.31584 17.755 6.20851 17.4618 6.02052C17.1685 5.83254 16.93 5.57055 16.7703 5.26097C16.3206 4.42582 15.8281 3.61209 15.357 2.78764C15.1539 2.40013 14.8447 2.07851 14.4654 1.86044C14.0862 1.64236 13.6526 1.53688 13.2156 1.55633C11.4025 1.55633 9.59301 1.55633 7.78709 1.55633C7.34937 1.54046 6.91608 1.64864 6.53719 1.86839C6.1583 2.08815 5.84925 2.41053 5.64567 2.79835L4.14668 5.41087C4.02104 5.64282 3.84704 5.84507 3.63645 6.00394C3.42587 6.1628 3.18361 6.27457 2.92608 6.33168L1.9089 6.58865C1.76303 6.61468 1.63064 6.69033 1.53416 6.80279H2.12305C2.18053 6.79702 2.23855 6.80543 2.29203 6.82728C2.34551 6.84914 2.39281 6.88378 2.4298 6.92816C2.46678 6.97254 2.49232 7.02531 2.50418 7.08186C2.51603 7.1384 2.51384 7.19699 2.49779 7.25249C2.40143 7.69148 2.28365 8.13047 2.16587 8.56946C2.14805 8.6478 2.10242 8.71702 2.03745 8.76427C1.97247 8.81153 1.89256 8.83361 1.81254 8.82643C1.66264 8.82643 1.51274 8.82643 1.37355 8.82643C1.23436 8.82643 1.17012 8.82643 1.17012 9.01916C1.17012 9.21188 1.17012 9.5331 1.17012 9.79006C1.16983 9.92782 1.19784 10.0642 1.25238 10.1907C1.30693 10.3172 1.38687 10.4311 1.48724 10.5255C1.58761 10.6198 1.70629 10.6925 1.83591 10.7392C1.96553 10.7858 2.10335 10.8053 2.24082 10.7965H2.74406C3.25799 10.7965 3.18305 10.7965 3.19375 10.3575C3.29037 9.8018 3.58321 9.29918 4.01903 8.94107C4.45485 8.58295 5.0047 8.39312 5.56863 8.40608C6.13256 8.41905 6.67311 8.63394 7.09201 9.01171C7.51092 9.38947 7.78035 9.90502 7.85133 10.4646C7.85133 10.7537 7.85133 10.7537 8.14042 10.7537H14.3398C14.3604 10.7552 14.381 10.7524 14.4005 10.7455C14.4199 10.7386 14.4377 10.7278 14.4528 10.7138C14.4679 10.6997 14.4799 10.6827 14.4881 10.6638C14.4963 10.6448 14.5005 10.6244 14.5004 10.6038V10.4646C14.5037 9.99778 14.6488 9.54296 14.9165 9.16051C15.1842 8.77806 15.5619 8.48604 15.9994 8.3232C16.4471 8.14796 16.9379 8.11459 17.4052 8.22758C17.8725 8.34058 18.2938 8.59449 18.6119 8.95491C18.8162 9.17803 18.9736 9.43989 19.0747 9.72497C19.1759 10.0101 19.2188 10.3125 19.2008 10.6145C19.2008 10.7965 19.2544 10.8608 19.4364 10.8501H20.1538C20.2929 10.8535 20.4311 10.8277 20.5597 10.7743C20.6882 10.721 20.8041 10.6413 20.8999 10.5404C20.9958 10.4395 21.0694 10.3197 21.1161 10.1886C21.1628 10.0575 21.1814 9.91811 21.1709 9.77936C21.1709 9.60804 21.1709 9.43673 21.1709 9.26542C21.1709 8.77289 21.1709 8.83714 20.7533 8.82643C20.3415 8.80594 19.9518 8.63385 19.6593 8.34327C19.3667 8.05269 19.192 7.66417 19.1687 7.25249C19.1617 7.1988 19.1671 7.14422 19.1845 7.09296C19.2019 7.04169 19.2309 6.99512 19.2692 6.95683C19.3075 6.91855 19.3541 6.88957 19.4053 6.87215C19.4566 6.85472 19.5112 6.84931 19.5649 6.85633L20.1002 6.80279ZM5.52789 12.1563C5.85072 12.1499 6.16456 12.0489 6.43049 11.8657C6.69641 11.6826 6.90271 11.4254 7.02378 11.1261C7.14486 10.8267 7.17539 10.4984 7.11158 10.1819C7.04777 9.86539 6.89244 9.57457 6.66484 9.34553C6.43725 9.11649 6.14742 8.95931 5.83131 8.89349C5.5152 8.82768 5.18672 8.85612 4.88663 8.97529C4.58653 9.09447 4.32803 9.29913 4.1432 9.56388C3.95837 9.82864 3.85533 10.1418 3.84688 10.4646C3.84688 10.9048 4.02173 11.3269 4.33297 11.6381C4.6442 11.9494 5.06633 12.1242 5.50648 12.1242L5.52789 12.1563ZM16.8346 8.83714C16.508 8.83928 16.1894 8.93835 15.9192 9.12178C15.6491 9.30521 15.4394 9.56474 15.3169 9.86746C15.1944 10.1702 15.1646 10.5025 15.2312 10.8222C15.2977 11.1419 15.4578 11.4346 15.6909 11.6633C15.9241 11.8919 16.2199 12.0462 16.5408 12.1065C16.8618 12.1668 17.1934 12.1305 17.4937 12.0021C17.794 11.8737 18.0493 11.659 18.2275 11.3853C18.4056 11.1116 18.4984 10.7912 18.4942 10.4646C18.483 10.0309 18.3036 9.61859 17.9939 9.31484C17.6841 9.01109 17.2684 8.83977 16.8346 8.83714ZM20.4 7.49875H20.1538C20.1002 7.49875 20.0253 7.49875 20.0039 7.49875C19.9824 7.49875 20.0039 7.60582 20.0039 7.64865C20.1046 7.78653 20.2368 7.89832 20.3896 7.97469C20.5423 8.05105 20.7111 8.08978 20.8818 8.08764C20.9996 8.08764 21.021 8.08764 20.9889 7.93774C20.9247 7.5737 20.8283 7.49875 20.4 7.49875ZM1.42709 7.49875C1.18082 7.49875 1.17012 7.49875 1.17012 7.75572V7.94845C1.17012 8.04481 1.17012 8.13047 1.30931 8.13047C1.4485 8.13047 1.55557 8.14118 1.55557 7.99128L1.61981 7.75572C1.69476 7.50946 1.68406 7.49875 1.42709 7.49875Z" fill="#A7AEB6"/>
<path d="M7.32658 5.83921H4.9282C4.51062 5.83921 4.36072 5.57153 4.57486 5.2182C5.0888 4.35093 5.64557 3.48366 6.1381 2.61638C6.28707 2.36234 6.50218 2.15347 6.7605 2.01205C7.01883 1.87063 7.31068 1.80196 7.60497 1.81335H9.74638C10.0676 1.81335 10.1854 1.93113 10.1854 2.23093V5.44305C10.1854 5.75355 10.0676 5.87133 9.74638 5.87133L7.32658 5.83921ZM7.47648 5.11113C8.06537 5.11113 8.66497 5.11113 9.26456 5.11113C9.40375 5.11113 9.48941 5.11113 9.48941 4.9184C9.48941 4.16891 9.48941 3.41941 9.48941 2.66992C9.48941 2.52002 9.42517 2.47719 9.28598 2.47719C8.73992 2.47719 8.21527 2.47719 7.63709 2.47719C7.44918 2.4794 7.26517 2.53103 7.10354 2.62688C6.9419 2.72273 6.80835 2.85943 6.71628 3.02325L5.58133 4.93982C5.46355 5.12184 5.47426 5.14325 5.69911 5.14325L7.47648 5.11113Z" fill="#A7AEB6"/>
<path d="M13.6758 5.83909H11.2774C10.9241 5.83909 10.817 5.73202 10.817 5.37869V2.27364C10.817 1.92031 10.9241 1.81324 11.2774 1.81324H13.4188C13.6944 1.80844 13.9667 1.87371 14.2102 2.00293C14.4536 2.13215 14.6603 2.32109 14.8108 2.55202C14.9124 2.69415 15.002 2.84458 15.0784 3.00172C15.1189 3.07776 15.1293 3.16626 15.1075 3.2496C15.0856 3.33294 15.0332 3.40499 14.9607 3.45142C14.8835 3.50101 14.7902 3.51868 14.7003 3.5007C14.6103 3.48272 14.5309 3.43049 14.4788 3.35505C14.4039 3.25869 14.3504 3.15162 14.2861 3.05526C14.1914 2.88667 14.0528 2.74688 13.885 2.65073C13.7172 2.55459 13.5265 2.50568 13.3332 2.50919C12.7764 2.50919 12.2625 2.50919 11.6843 2.50919C11.5237 2.50919 11.4809 2.57344 11.4809 2.72334V4.92899C11.4809 5.0896 11.5451 5.14313 11.7057 5.14313C12.8942 5.14313 14.0934 5.14313 15.2926 5.14313C15.4639 5.14313 15.496 5.14313 15.3996 4.95041C15.3033 4.75768 15.1748 4.58637 15.0677 4.40435C14.9607 4.22233 14.9714 3.96536 15.1641 3.85829C15.2085 3.83301 15.2577 3.81737 15.3086 3.81238C15.3594 3.80739 15.4108 3.81316 15.4593 3.82932C15.5077 3.84548 15.5523 3.87166 15.59 3.90617C15.6277 3.94068 15.6577 3.98273 15.678 4.0296C15.9243 4.42576 16.1706 4.83263 16.4061 5.2395C16.6417 5.64637 16.4061 5.83909 16.0635 5.83909H13.6758Z" fill="#A7AEB6"/>
<path d="M5.15302 6.83492H4.76757C4.67858 6.8294 4.59525 6.7894 4.53527 6.72343C4.47529 6.65745 4.4434 6.5707 4.44636 6.48159C4.45416 6.40105 4.4911 6.32614 4.55025 6.27093C4.60941 6.21572 4.68669 6.18402 4.76757 6.18179H5.49565C5.53785 6.17888 5.58021 6.18434 5.6203 6.19785C5.66039 6.21136 5.69741 6.23265 5.72925 6.26051C5.76108 6.28836 5.7871 6.32223 5.80581 6.36017C5.82452 6.39811 5.83555 6.43937 5.83827 6.48159C5.84118 6.5252 5.83544 6.56895 5.8214 6.61033C5.80735 6.65172 5.78527 6.68992 5.75642 6.72275C5.72757 6.75558 5.69252 6.78239 5.65328 6.80164C5.61404 6.82089 5.57139 6.8322 5.52777 6.83492H5.15302Z" fill="#A7AEB6"/>
<path d="M11.5023 6.83489C11.3776 6.84542 11.2523 6.84542 11.1276 6.83489C11.0854 6.83217 11.0441 6.82114 11.0062 6.80243C10.9682 6.78372 10.9344 6.7577 10.9065 6.72587C10.8786 6.69403 10.8574 6.65701 10.8438 6.61692C10.8303 6.57683 10.8249 6.53447 10.8278 6.49227C10.8303 6.41252 10.8623 6.33656 10.9178 6.27916C10.9732 6.22176 11.048 6.18704 11.1276 6.18176H11.8771C11.9605 6.18958 12.0381 6.22767 12.0953 6.28882C12.1525 6.34998 12.1853 6.42997 12.1876 6.51368C12.1905 6.55729 12.1848 6.60104 12.1707 6.64243C12.1567 6.68381 12.1346 6.72202 12.1057 6.75485C12.0769 6.78767 12.0418 6.81448 12.0026 6.83373C11.9634 6.85298 11.9207 6.86429 11.8771 6.86702C11.7515 6.86732 11.6261 6.85657 11.5023 6.83489Z" fill="#A7AEB6"/>
<path d="M6.51302 10.4646C6.52589 10.6787 6.47419 10.8916 6.36463 11.0759C6.25507 11.2603 6.0927 11.4074 5.89853 11.4984C5.70437 11.5894 5.48736 11.62 5.27561 11.5862C5.06387 11.5524 4.86714 11.4559 4.7109 11.309C4.55467 11.1621 4.44613 10.9718 4.39934 10.7625C4.35255 10.5533 4.36966 10.3348 4.44847 10.1354C4.52727 9.93594 4.66413 9.76478 4.84133 9.64404C5.01853 9.5233 5.22789 9.45854 5.44231 9.45815C5.58015 9.44774 5.71864 9.46613 5.84898 9.51217C5.97932 9.5582 6.09864 9.63087 6.19936 9.72554C6.30008 9.82022 6.37998 9.93482 6.43398 10.0621C6.48798 10.1893 6.5149 10.3264 6.51302 10.4646ZM5.83848 10.4646C5.83304 10.3832 5.79681 10.3069 5.73715 10.2512C5.67749 10.1955 5.59887 10.1646 5.51726 10.1648C5.43453 10.1644 5.35463 10.195 5.29322 10.2504C5.23182 10.3059 5.19335 10.3823 5.18534 10.4646C5.18802 10.5461 5.22159 10.6236 5.27925 10.6812C5.33691 10.7389 5.41435 10.7724 5.49585 10.7751C5.53924 10.7796 5.5831 10.775 5.62456 10.7614C5.66602 10.7478 5.70416 10.7257 5.73648 10.6964C5.76881 10.6671 5.7946 10.6313 5.81217 10.5914C5.82975 10.5514 5.83871 10.5082 5.83848 10.4646Z" fill="#A7AEB6"/>
<path d="M16.8667 9.46885C16.9997 9.46733 17.1317 9.49277 17.2546 9.54363C17.3775 9.59448 17.4888 9.6697 17.5819 9.76475C17.6749 9.8598 17.7478 9.97271 17.796 10.0967C17.8442 10.2206 17.8668 10.3531 17.8625 10.486C17.8728 10.7029 17.817 10.9177 17.7024 11.1021C17.5879 11.2865 17.42 11.4317 17.221 11.5185C17.022 11.6052 16.8013 11.6295 16.5882 11.588C16.3752 11.5465 16.1797 11.4411 16.0279 11.286C15.876 11.1309 15.7749 10.9333 15.7379 10.7194C15.701 10.5055 15.7299 10.2854 15.8209 10.0883C15.9119 9.89116 16.0606 9.72638 16.2474 9.61576C16.4342 9.50513 16.6502 9.4539 16.8667 9.46885ZM16.8667 10.1755C16.7868 10.1751 16.7096 10.2045 16.6502 10.258C16.5908 10.3114 16.5535 10.3851 16.5455 10.4646C16.5499 10.542 16.5812 10.6154 16.634 10.6721C16.6868 10.7288 16.7578 10.7652 16.8346 10.7751C16.8795 10.7836 16.9256 10.782 16.9698 10.7706C17.014 10.7591 17.0551 10.7381 17.0902 10.709C17.1254 10.6798 17.1537 10.6433 17.1731 10.602C17.1925 10.5607 17.2025 10.5156 17.2025 10.47C17.2025 10.4243 17.1925 10.3792 17.1731 10.3379C17.1537 10.2966 17.1254 10.2601 17.0902 10.231C17.0551 10.2018 17.014 10.1808 16.9698 10.1694C16.9256 10.1579 16.8795 10.1564 16.8346 10.1648L16.8667 10.1755Z" fill="#A7AEB6"/>
</g>
<defs>
<clipPath id="clip0_101_928">
<rect width="21.3713" height="12.0026" fill="white" transform="translate(0.484863 0.828247)"/>
</clipPath>
</defs>
</svg>
