<svg width="19" height="17" viewBox="0 0 19 17" fill="none" xmlns="http://www.w3.org/2000/svg">
<g clip-path="url(#clip0_101_947)">
<path d="M16.7976 16.8438H16.4549C16.1005 16.7865 15.7794 16.6011 15.5525 16.3229C15.3255 16.0447 15.2085 15.6929 15.2236 15.3341C15.2236 15.0343 15.2236 15.0343 14.9131 15.0343H3.62786C3.3816 15.0343 3.3816 15.0343 3.37089 15.2913C3.37884 15.514 3.34244 15.736 3.26382 15.9444C3.17064 16.185 3.01383 16.3958 2.81016 16.5542C2.60649 16.7126 2.3636 16.8127 2.10746 16.8438H1.80766C1.44978 16.8059 1.1205 16.6308 0.888927 16.3553C0.657354 16.0798 0.541487 15.7253 0.565641 15.3662V11.2119C0.563457 10.3598 0.867436 9.53525 1.42221 8.88847C1.55128 8.76026 1.62767 8.58837 1.63635 8.40665C1.63635 6.6614 1.63635 4.96968 1.63635 3.16019C1.63067 2.84099 1.68794 2.52381 1.80487 2.22675C1.9218 1.9297 2.0961 1.65859 2.31783 1.42891C2.53956 1.19923 2.80436 1.01548 3.09711 0.888153C3.38986 0.76083 3.70483 0.692427 4.02402 0.686852H14.4848C14.8195 0.684023 15.151 0.752228 15.4574 0.886962C15.7638 1.0217 16.0381 1.21989 16.2622 1.46847C16.4816 1.69962 16.6532 1.97185 16.7672 2.26952C16.8811 2.56718 16.9351 2.88442 16.926 3.20301C16.926 4.8519 16.926 6.49008 16.926 8.13897C16.908 8.27873 16.9239 8.42076 16.9724 8.55308C17.0208 8.68539 17.1004 8.8041 17.2044 8.89918C17.2535 8.95522 17.2965 9.01622 17.3329 9.0812C17.6983 9.59146 17.9335 10.1832 18.0182 10.805V15.6768C17.9612 15.974 17.8131 16.2461 17.5943 16.4553C17.3756 16.6645 17.0971 16.8003 16.7976 16.8438ZM9.30261 14.3062H17.0974C17.3222 14.3062 17.3222 14.3062 17.3222 14.0707V13.3105C17.3222 13 17.3222 13 17.0224 13H14.0887C14.0001 13.0156 13.9095 13.0156 13.821 13C13.7491 12.9775 13.6863 12.9327 13.6417 12.872C13.597 12.8114 13.573 12.738 13.573 12.6627C13.573 12.5874 13.597 12.5141 13.6417 12.4534C13.6863 12.3927 13.7491 12.3479 13.821 12.3254C13.9023 12.309 13.986 12.309 14.0673 12.3254H17.0974C17.258 12.3254 17.3222 12.2719 17.3222 12.1113C17.3222 11.758 17.3222 11.4046 17.3222 11.0406C17.256 10.2934 16.915 9.59726 16.3651 9.08697C15.8153 8.57668 15.0957 8.28849 14.3456 8.27817H4.2917C3.59377 8.28413 2.91914 8.53 2.38104 8.97452C1.84295 9.41903 1.47415 10.0351 1.33655 10.7194C1.27752 11.1378 1.25602 11.5606 1.27231 11.9828C1.27231 12.2612 1.27231 12.2612 1.5614 12.2612H10.3198C10.4051 12.2509 10.4914 12.2509 10.5768 12.2612C10.6586 12.2756 10.7327 12.3184 10.7861 12.382C10.8395 12.4457 10.8688 12.5261 10.8688 12.6092C10.8688 12.6923 10.8395 12.7727 10.7861 12.8363C10.7327 12.9 10.6586 12.9427 10.5768 12.9572C10.4807 12.9678 10.3837 12.9678 10.2877 12.9572H1.44362C1.32584 12.9572 1.27231 12.9572 1.27231 13.1285V14.0172C1.27231 14.2634 1.27231 14.2634 1.52928 14.2634L9.30261 14.3062ZM9.30261 1.45776H4.1418C4.02165 1.43692 3.89953 1.42973 3.77776 1.43635C3.36552 1.49673 2.99005 1.70712 2.72332 2.02719C2.45659 2.34727 2.31736 2.75452 2.33231 3.17089C2.33231 4.5521 2.33231 5.94402 2.33231 7.33594C2.33231 7.52867 2.33231 7.71069 2.33231 7.90342C2.33231 8.09615 2.38584 8.06402 2.50362 7.98907C2.60645 7.92072 2.71812 7.86668 2.83554 7.82847C2.9017 7.8108 2.95903 7.76936 2.99657 7.71207C3.0341 7.65479 3.0492 7.58568 3.03897 7.51796C3.00673 7.14033 3.00673 6.76064 3.03897 6.38301C3.09467 5.93178 3.31626 5.5174 3.66062 5.22054C4.00499 4.92367 4.44749 4.76555 4.902 4.77695H7.75008C8.02287 4.76785 8.29424 4.81986 8.54433 4.92916C8.79443 5.03846 9.01693 5.20229 9.19554 5.40867C9.2812 5.50503 9.32403 5.49433 9.40968 5.40867C9.57614 5.2101 9.78424 5.05057 10.0192 4.9414C10.2542 4.83223 10.5104 4.77609 10.7695 4.77695H13.7353C14.1745 4.77442 14.5999 4.92982 14.9341 5.21481C15.2682 5.49981 15.4888 5.89542 15.5555 6.32948C15.5877 6.6642 15.5877 7.00122 15.5555 7.33594C15.5555 7.62503 15.5555 7.81776 15.8982 7.882H16.0052C16.1765 7.97837 16.1873 7.97837 16.1873 7.77493C16.1873 6.2117 16.1873 4.65918 16.1873 3.09594C16.1926 3.01037 16.1926 2.92455 16.1873 2.83897C16.117 2.4279 15.8983 2.05691 15.5727 1.79639C15.247 1.53587 14.8371 1.40394 14.4206 1.42564L9.30261 1.45776ZM12.3434 7.49655C13.018 7.49655 13.8638 7.49655 14.7097 7.49655C14.8382 7.49655 14.8917 7.49655 14.881 7.32524C14.8703 7.15392 14.881 6.75776 14.881 6.47938C14.862 6.20859 14.7409 5.95514 14.5421 5.77028C14.3433 5.58542 14.0817 5.48295 13.8103 5.48362H10.7267C10.47 5.48032 10.2207 5.56931 10.0242 5.73439C9.82768 5.89947 9.69699 6.12966 9.65594 6.38301C9.63459 6.67171 9.63459 6.96159 9.65594 7.25029C9.65594 7.4216 9.65594 7.47514 9.87008 7.46443L12.3434 7.49655ZM6.47594 7.49655H8.74584C8.89574 7.49655 8.95998 7.49655 8.94928 7.29312C8.93857 7.08968 8.94928 6.87554 8.94928 6.6614C8.95958 6.51462 8.93951 6.36729 8.89034 6.2286C8.84116 6.08992 8.76393 5.96286 8.66346 5.85536C8.56299 5.74786 8.44144 5.66222 8.30639 5.60379C8.17135 5.54535 8.02571 5.51538 7.87857 5.51574H4.77352C4.50379 5.51488 4.24366 5.61585 4.04516 5.79848C3.84665 5.9811 3.72439 6.23192 3.70281 6.50079C3.77776 6.78988 3.77776 7.11109 3.77776 7.35736C3.77776 7.60362 3.842 7.55008 3.9812 7.52867C4.13068 7.51289 4.28141 7.51289 4.43089 7.52867L6.47594 7.49655ZM15.9838 15.3234V15.4198C15.9825 15.5904 16.044 15.7556 16.1565 15.8839C16.269 16.0122 16.4248 16.0947 16.5941 16.1157C16.7677 16.1314 16.9407 16.0803 17.078 15.9729C17.2152 15.8655 17.3064 15.7098 17.3329 15.5376C17.3439 15.4558 17.3439 15.373 17.3329 15.2913C17.3329 15.045 17.3329 15.0343 17.0867 15.0343H16.2622C15.9517 15.0343 15.9517 15.0343 15.9517 15.3234H15.9838ZM1.95756 15.0343H1.63635C1.22948 15.0343 1.22948 14.9701 1.2616 15.4519C1.25024 15.6308 1.31042 15.8069 1.42889 15.9414C1.54736 16.076 1.71442 16.1579 1.89332 16.1693C2.07222 16.1806 2.2483 16.1205 2.38284 16.002C2.51737 15.8835 2.59933 15.7165 2.61069 15.5376C2.62157 15.42 2.62157 15.3018 2.61069 15.1842C2.61069 15.0772 2.55716 15.0343 2.46079 15.0343H1.95756Z" fill="#A7AEB6"/>
<path d="M12.2257 12.9892C12.131 12.9893 12.04 12.9524 11.972 12.8864C11.9041 12.8204 11.8645 12.7306 11.8617 12.6359C11.8617 12.5412 11.8985 12.4502 11.9645 12.3822C12.0305 12.3142 12.1203 12.2746 12.215 12.2719C12.3082 12.2767 12.3964 12.3152 12.4634 12.3802C12.5303 12.4452 12.5714 12.5322 12.5791 12.6252C12.5791 12.7199 12.5422 12.8109 12.4763 12.8789C12.4103 12.9469 12.3204 12.9864 12.2257 12.9892Z" fill="#A7AEB6"/>
</g>
<defs>
<clipPath id="clip0_101_947">
<rect width="17.4525" height="16.157" fill="white" transform="translate(0.565674 0.68689)"/>
</clipPath>
</defs>
</svg>
