<svg width="34" height="34" viewBox="0 0 34 34" fill="none" xmlns="http://www.w3.org/2000/svg">
<circle cx="17" cy="17" r="17" fill="white"/>
<path d="M13.1175 10.6398C13.6013 10.6356 14.082 10.717 14.5375 10.8803C14.8471 10.9953 15.1452 11.1395 15.4275 11.3111C15.7886 11.53 16.124 11.7888 16.4275 12.0826C16.5956 12.2597 16.7526 12.4471 16.8975 12.6437C16.9763 12.7327 17.0498 12.8264 17.1175 12.9242C17.1175 12.9242 17.1675 12.9242 17.2075 12.9242C17.4771 12.5889 17.7713 12.2741 18.0875 11.9824C18.2559 11.8217 18.4364 11.6743 18.6275 11.5416C18.836 11.3982 19.0531 11.2677 19.2775 11.1508C19.4906 11.0345 19.7151 10.9405 19.9475 10.8703C20.2236 10.7583 20.5125 10.6809 20.8075 10.6398C21.1395 10.5979 21.4755 10.5979 21.8075 10.6398C22.5367 10.7754 23.2328 11.0509 23.8575 11.4514C24.145 11.6223 24.4132 11.8239 24.6575 12.0525C24.7877 12.173 24.9081 12.3036 25.0175 12.4433C25.1691 12.6436 25.3061 12.8545 25.4275 13.0745C25.6918 13.5343 25.8967 14.0258 26.0375 14.5373C26.1177 14.8436 26.1778 15.1549 26.2175 15.4691C26.2401 15.8027 26.2401 16.1374 26.2175 16.471C26.1996 16.7532 26.1662 17.0341 26.1175 17.3126C26.0291 17.7856 25.8847 18.2464 25.6875 18.6852C25.5343 19.0312 25.3572 19.366 25.1575 19.6872C24.9475 20.0278 24.6975 20.3384 24.4575 20.6891C24.3175 20.8594 24.1675 21.0097 24.0075 21.17C23.7246 21.4683 23.424 21.7494 23.1075 22.0116L22.7775 22.2821L22.2875 22.6729C21.9575 22.9234 21.6175 23.1638 21.2875 23.4243L20.8375 23.775C20.6375 23.9153 20.4475 24.0656 20.2575 24.2158L19.6175 24.7268C19.3175 24.9673 19.0375 25.2077 18.7575 25.4582C18.4775 25.7087 18.4775 25.7187 18.3375 25.859C18.1975 25.9993 18.1075 26.0994 17.9775 26.2097C17.912 26.282 17.8518 26.359 17.7975 26.4401C17.5975 26.6906 17.4175 26.9511 17.2375 27.2216C17.2066 27.2668 17.1732 27.3103 17.1375 27.3518C17.1375 27.3518 17.0675 27.412 17.0275 27.3518L16.7975 27.0212C16.565 26.667 16.3006 26.335 16.0075 26.0293L15.2575 25.338C14.9375 25.0575 14.5975 24.797 14.2575 24.5264C13.9175 24.2559 13.9075 24.2559 13.7275 24.1257L13.0075 23.5345L12.0075 22.753L11.4075 22.2821C11.0875 22.0216 10.7875 21.7511 10.4975 21.4706C10.2487 21.2279 10.0149 20.9703 9.7975 20.6991C9.49962 20.3507 9.23512 19.975 9.0075 19.577C8.8424 19.3046 8.69864 19.0199 8.5775 18.7253C8.36956 18.2706 8.21518 17.7931 8.1175 17.3026C8.06604 17.068 8.0293 16.8304 8.0075 16.5912C7.9975 16.4411 7.9975 16.2905 8.0075 16.1404C8.01214 16.087 8.01214 16.0334 8.0075 15.9801C8.0075 15.8899 8.0075 15.7997 8.0075 15.6995C8.02789 15.4265 8.06799 15.1552 8.1275 14.888C8.18024 14.6504 8.24702 14.4162 8.3275 14.1866C8.42345 13.9011 8.54043 13.6232 8.6775 13.355C8.82266 13.0759 8.99339 12.811 9.1875 12.5635C9.49566 12.1592 9.87947 11.8189 10.3175 11.5616C10.561 11.4042 10.8149 11.2636 11.0775 11.1408C11.3769 11.0001 11.6881 10.8861 12.0075 10.8001C12.368 10.6939 12.7418 10.64 13.1175 10.6398Z" fill="#E92027"/>
</svg>
