<svg width="34" height="34" viewBox="0 0 34 34" fill="none" xmlns="http://www.w3.org/2000/svg">
<circle cx="17" cy="17" r="17" fill="white"/>
<path d="M13.0972 10.6198C13.5709 10.6191 14.0411 10.7004 14.4872 10.8603C14.7968 10.9752 15.0948 11.1195 15.3772 11.2911C15.7383 11.5099 16.0737 11.7687 16.3772 12.0626C16.5506 12.2229 16.7142 12.3935 16.8672 12.5735C16.946 12.6626 17.0194 12.7563 17.0872 12.8541C17.0872 12.8541 17.1372 12.8541 17.1772 12.8541C17.4468 12.5187 17.7409 12.2039 18.0572 11.9123C18.2256 11.7516 18.4061 11.6042 18.5972 11.4714C18.8099 11.3414 19.0303 11.2243 19.2572 11.1208C19.4703 11.0044 19.6948 10.9104 19.9272 10.8402C20.2046 10.7385 20.4934 10.6712 20.7872 10.6398C21.1192 10.5979 21.4551 10.5979 21.7872 10.6398C22.5163 10.7754 23.2125 11.0509 23.8372 11.4514C24.1247 11.6223 24.3929 11.8239 24.6372 12.0525C24.7674 12.173 24.8877 12.3036 24.9972 12.4433C25.1784 12.6569 25.3423 12.8847 25.4872 13.1246C25.7514 13.5844 25.9564 14.0759 26.0972 14.5874C26.1773 14.8937 26.2374 15.205 26.2772 15.5192C26.2998 15.8528 26.2998 16.1875 26.2772 16.5211C26.2592 16.8033 26.2258 17.0842 26.1772 17.3627C26.0887 17.8357 25.9444 18.2965 25.7472 18.7353C25.594 19.0813 25.4169 19.4161 25.2172 19.7373C25.0072 20.0779 24.7572 20.3885 24.5172 20.7392C24.3772 20.9095 24.2272 21.0598 24.0672 21.2201C23.7842 21.5184 23.4837 21.7995 23.1672 22.0617L22.8372 22.3322L22.3472 22.723C22.0172 22.9735 21.6772 23.2139 21.3472 23.4744L20.8972 23.8251C20.6972 23.9654 20.5072 24.1156 20.3172 24.2659L19.6772 24.7769C19.3772 25.0174 19.0972 25.2578 18.8172 25.5083C18.5372 25.7588 18.5372 25.7688 18.3972 25.9091C18.2572 26.0494 18.1672 26.1495 18.0372 26.2598C17.9716 26.3321 17.9115 26.4091 17.8572 26.4902C17.6572 26.7407 17.4772 27.0012 17.2972 27.2717C17.2663 27.3169 17.2329 27.3604 17.1972 27.4019C17.1972 27.4019 17.1272 27.4621 17.0872 27.4019L16.8572 27.0713C16.6073 26.6828 16.3192 26.3203 15.9972 25.9892L15.2472 25.2979C14.9272 25.0174 14.5872 24.7569 14.2472 24.4864C13.9072 24.2158 13.8972 24.2158 13.7172 24.0856L12.9672 23.4945L11.9672 22.713L11.3672 22.2421C11.0472 21.9816 10.7472 21.711 10.4572 21.4305C10.2084 21.1879 9.97461 20.9302 9.75717 20.659C9.45929 20.3106 9.19479 19.9349 8.96717 19.5369C8.78581 19.2726 8.62532 18.9946 8.48717 18.7053C8.30322 18.2476 8.17236 17.7702 8.09717 17.2826C8.05243 17.0475 8.02237 16.81 8.00717 16.5712C7.99761 16.4244 7.99761 16.2771 8.00717 16.1303C8.01181 16.077 8.01181 16.0234 8.00717 15.97C8.00717 15.8799 8.00717 15.7897 8.00717 15.6895C8.02756 15.4164 8.06766 15.1452 8.12717 14.878C8.18447 14.623 8.25795 14.372 8.34717 14.1265C8.44312 13.841 8.5601 13.563 8.69717 13.2949C8.84233 13.0158 9.01306 12.7508 9.20717 12.5034C9.51533 12.0991 9.89914 11.7588 10.3372 11.5015C10.5688 11.3593 10.8093 11.2322 11.0572 11.1208C11.3437 10.9822 11.6414 10.8683 11.9472 10.7801C12.3205 10.6701 12.708 10.616 13.0972 10.6198V10.6198Z" stroke="#808080" stroke-miterlimit="10"/>
</svg>
