<svg width="30" height="30" viewBox="0 0 30 30" fill="none" xmlns="http://www.w3.org/2000/svg">
<path d="M29.1459 15.0197C29.153 18.5422 27.8352 21.9386 25.4542 24.5346C23.0732 27.1305 19.8031 28.7363 16.2931 29.033C15.8979 29.0871 15.4989 29.1089 15.1001 29.0981C12.3113 29.0981 9.58523 28.2711 7.26649 26.7218C4.94775 25.1724 3.14051 22.9703 2.07331 20.3939C1.00611 17.8174 0.726881 14.9824 1.27093 12.2472C1.81499 9.51208 3.15789 6.99969 5.12982 5.02777C7.10174 3.05584 9.61413 1.71294 12.3493 1.16888C15.0844 0.62483 17.9195 0.904059 20.4959 1.97126C23.0724 3.03846 25.2745 4.8457 26.8238 7.16444C28.3732 9.48318 29.2001 12.2093 29.2001 14.998L29.1459 15.0197Z" stroke="white" stroke-miterlimit="10"/>
<path d="M16.7379 12.0803C16.9079 11.9243 17.1085 11.8051 17.3269 11.7305C17.5453 11.6558 17.7769 11.6272 18.0069 11.6465C18.6555 11.6473 19.3012 11.7349 19.9267 11.9068L20.4798 8.95664C19.3574 8.58686 18.1795 8.41438 16.9982 8.44687C15.9734 8.40021 14.9548 8.62865 14.048 9.10848C13.3538 9.44189 12.8004 10.0107 12.4862 10.7137C12.1451 11.6656 11.9976 12.676 12.0523 13.6856V14.8461H9.72038V18.2193H12.0523V28.8269C13.0537 29.0426 14.0757 29.1481 15.1001 29.1414C15.4989 29.1522 15.8979 29.1304 16.2932 29.0763V18.2301H19.3843V14.8027H16.2932V13.7181C16.2249 13.1353 16.3842 12.5486 16.7379 12.0803Z" fill="white"/>
</svg>
