<svg width="30" height="30" viewBox="0 0 30 30" fill="none" xmlns="http://www.w3.org/2000/svg">
<path d="M29.2001 15.0517C29.2001 17.8404 28.3732 20.5665 26.8238 22.8853C25.2745 25.204 23.0724 27.0113 20.4959 28.0785C17.9195 29.1457 15.0844 29.4249 12.3493 28.8808C9.61413 28.3368 7.10174 26.9939 5.12982 25.022C3.15789 23.05 1.81499 20.5376 1.27093 17.8025C0.726881 15.0674 1.00611 12.2323 2.07331 9.65586C3.14051 7.07941 4.94775 4.87728 7.26649 3.32795C9.58523 1.77861 12.3113 0.95166 15.1001 0.95166C18.8396 0.95166 22.426 2.4372 25.0703 5.08147C27.7146 7.72574 29.2001 11.3121 29.2001 15.0517V15.0517Z" stroke="white" stroke-miterlimit="10"/>
<path fill-rule="evenodd" clip-rule="evenodd" d="M20.7294 7.45972H9.54696C9.27219 7.42426 8.99295 7.45231 8.73072 7.5417C8.46849 7.63109 8.23026 7.77944 8.03435 7.97535C7.83845 8.17125 7.6901 8.40948 7.6007 8.67171C7.51131 8.93395 7.48327 9.21319 7.51873 9.48796V20.6487C7.48628 20.9157 7.51446 21.1866 7.60115 21.4413C7.68785 21.6959 7.83083 21.9278 8.01947 22.1195C8.20812 22.3113 8.43756 22.4581 8.69075 22.549C8.94394 22.6398 9.21435 22.6724 9.48189 22.6444H20.7294C21.0015 22.6759 21.2771 22.6453 21.5357 22.5549C21.7942 22.4645 22.0289 22.3166 22.222 22.1224C22.4152 21.9283 22.5618 21.6928 22.6508 21.4338C22.7398 21.1747 22.7689 20.8989 22.7359 20.627V9.44457C22.7679 9.17432 22.7377 8.90035 22.6479 8.64349C22.558 8.38663 22.4107 8.15366 22.2172 7.96228C22.0238 7.7709 21.7892 7.62617 21.5314 7.53908C21.2736 7.452 20.9993 7.42486 20.7294 7.45972ZM19.4929 9.17342C21.0005 9.17342 21.0005 9.17342 21.0005 10.681C21.0005 12.1887 21.0005 12.1561 19.5255 12.1561C18.0504 12.1561 18.0287 12.1561 18.0287 10.6593C18.0287 9.16257 18.0287 9.17342 19.4929 9.17342ZM15.1544 12.1019C15.7393 12.1041 16.3103 12.2801 16.7949 12.6075C17.2795 12.935 17.6559 13.399 17.8762 13.9408C18.0965 14.4826 18.1508 15.0777 18.0321 15.6504C17.9135 16.2231 17.6274 16.7476 17.21 17.1573C16.7926 17.567 16.2629 17.8434 15.6881 17.9515C15.1133 18.0595 14.5194 17.9942 13.9818 17.7639C13.4441 17.5337 12.9871 17.1488 12.6687 16.6582C12.3503 16.1676 12.1848 15.5935 12.1934 15.0087C12.2157 14.2373 12.535 13.5044 13.0847 12.9628C13.6344 12.4212 14.372 12.1128 15.1436 12.1019H15.1544ZM21.0114 20.0088C21.0114 20.7138 20.8162 20.9198 20.1112 20.9198H10.1544C9.4602 20.9198 9.26496 20.7138 9.26496 20.0088C9.26496 18.1866 9.26496 16.3211 9.26496 14.4772C9.26496 13.9457 9.40596 13.8264 9.89404 13.8481C10.5882 13.8481 10.599 13.8481 10.5231 14.5423C10.4448 15.2112 10.5123 15.8892 10.721 16.5295C10.9297 17.1699 11.2746 17.7574 11.732 18.2518C12.1893 18.7462 12.7484 19.1356 13.3706 19.3933C13.9928 19.6511 14.6635 19.771 15.3365 19.7448C16.0095 19.7187 16.6688 19.5471 17.2692 19.2418C17.8695 18.9366 18.3967 18.5049 18.8143 17.9765C19.2319 17.4481 19.5302 16.8356 19.6885 16.181C19.8468 15.5263 19.8615 14.8452 19.7315 14.1844C19.6773 13.9241 19.7315 13.8698 19.981 13.8698C21.0656 13.7939 21.0656 13.7722 21.0656 14.8568L21.0114 20.0088Z" fill="white"/>
</svg>
