<svg width="30" height="30" viewBox="0 0 30 30" fill="none" xmlns="http://www.w3.org/2000/svg">
<path d="M29.2001 15.0517C29.2001 17.8404 28.3732 20.5665 26.8238 22.8853C25.2745 25.204 23.0724 27.0113 20.4959 28.0785C17.9195 29.1457 15.0844 29.4249 12.3493 28.8808C9.61413 28.3368 7.10174 26.9939 5.12982 25.022C3.15789 23.05 1.81499 20.5376 1.27093 17.8025C0.726881 15.0674 1.00611 12.2323 2.07331 9.65586C3.14051 7.07941 4.94775 4.87728 7.26649 3.32795C9.58523 1.77861 12.3113 0.95166 15.1001 0.95166C18.8396 0.95166 22.426 2.4372 25.0703 5.08147C27.7146 7.72574 29.2001 11.3121 29.2001 15.0517V15.0517Z" stroke="white" stroke-miterlimit="10"/>
<path fill-rule="evenodd" clip-rule="evenodd" d="M6.61829 20.7785C7.93747 20.8733 9.25972 20.6423 10.4687 20.106C11.0239 19.8681 11.5454 19.5581 12.0197 19.1841C11.4648 19.172 10.9198 19.0349 10.4253 18.7828C9.60922 18.3752 8.97762 17.6738 8.65737 16.8196C8.58145 16.6136 8.58145 16.6136 8.79837 16.6353C9.25213 16.6985 9.71413 16.6653 10.1541 16.5376C9.84849 16.4624 9.55338 16.3495 9.2756 16.2014C8.6957 15.8961 8.20614 15.4439 7.8559 14.89C7.50566 14.3361 7.30704 13.7 7.2799 13.0452C7.2799 12.8825 7.2799 12.8716 7.46429 12.9367C7.9156 13.17 8.41059 13.3067 8.91768 13.338C8.67906 13.1211 8.47299 12.9476 8.2886 12.7632C7.78819 12.2013 7.46549 11.5038 7.36124 10.7586C7.257 10.0135 7.37589 9.25416 7.70291 8.57654C7.80052 8.403 7.83306 8.403 7.95237 8.57654C9.60741 10.5314 11.9237 11.8093 14.4601 12.1666C14.7204 12.2209 15.0132 12.2317 15.2844 12.2751C15.5556 12.3185 15.4796 12.2209 15.4579 12.0799C15.3231 11.3129 15.4337 10.523 15.7741 9.82267C16.1145 9.12232 16.6673 8.54727 17.3536 8.17946C18.0399 7.81164 18.8249 7.66984 19.5965 7.77425C20.3682 7.87865 21.0872 8.22395 21.6511 8.76092C21.7029 8.81204 21.7676 8.84813 21.8382 8.86532C21.9089 8.88251 21.983 8.88017 22.0524 8.85854C22.7235 8.67707 23.3634 8.39553 23.9505 8.02338C24.0121 8.00514 24.0681 7.97155 24.1132 7.92577C23.8564 8.77202 23.3015 9.49648 22.5513 9.96485C23.2381 9.88781 23.9102 9.71248 24.547 9.44423C24.547 9.54185 24.547 9.58523 24.4494 9.66116C24.0234 10.2734 23.5079 10.8181 22.9201 11.2772C22.8729 11.3119 22.8352 11.3579 22.8106 11.411C22.7859 11.4641 22.7751 11.5225 22.7791 11.5809C22.8444 14.2199 21.9373 16.7909 20.2303 18.8045C18.6607 20.6699 16.4681 21.903 14.0588 22.2753C11.5101 22.7109 8.89016 22.1977 6.69421 20.8327C6.68585 20.8191 6.67481 20.8072 6.66177 20.7979C6.64872 20.7886 6.63394 20.782 6.61829 20.7785Z" fill="white"/>
</svg>
