<svg width="30" height="30" viewBox="0 0 30 30" fill="none" xmlns="http://www.w3.org/2000/svg">
<path d="M29.2001 15.0415C29.2001 17.8302 28.3732 20.5563 26.8238 22.875C25.2745 25.1938 23.0724 27.001 20.4959 28.0682C17.9195 29.1354 15.0844 29.4146 12.3493 28.8706C9.61413 28.3265 7.10174 26.9836 5.12982 25.0117C3.15789 23.0398 1.81499 20.5274 1.27093 17.7922C0.726881 15.0571 1.00611 12.2221 2.07331 9.6456C3.14051 7.06915 4.94775 4.86703 7.26649 3.31769C9.58523 1.76836 12.3113 0.941406 15.1001 0.941406C18.8396 0.941406 22.426 2.42694 25.0703 5.07122C27.7146 7.71549 29.2001 11.3019 29.2001 15.0415V15.0415Z" stroke="white" stroke-miterlimit="10"/>
<path fill-rule="evenodd" clip-rule="evenodd" d="M23.4733 13.0346C23.0312 11.1537 21.9671 9.47711 20.4533 8.27634C18.9395 7.07556 17.0648 6.42093 15.1326 6.41846C14.5978 6.43957 14.065 6.49755 13.5382 6.592C12.222 6.84936 10.985 7.41324 9.92739 8.23791C8.86979 9.06258 8.0214 10.1248 7.45096 11.3386C6.88053 12.5524 6.60412 13.8834 6.64413 15.224C6.68414 16.5645 7.03944 17.8767 7.68125 19.0543C7.72236 19.1178 7.75027 19.1889 7.76331 19.2635C7.77636 19.338 7.77427 19.4144 7.75717 19.4881C7.35586 20.7897 6.98709 22.1346 6.67255 23.4578C6.60748 23.6856 6.60748 23.6856 6.8244 23.6314C8.21271 23.2409 9.59018 22.8938 10.9676 22.5467C11.0172 22.5249 11.0708 22.5137 11.1249 22.5137C11.1791 22.5137 11.2326 22.5249 11.2822 22.5467C12.7336 23.2972 14.3695 23.6164 15.9966 23.4667C17.6236 23.317 19.1738 22.7047 20.464 21.702C21.7541 20.6993 22.7302 19.3483 23.2769 17.8085C23.8236 16.2688 23.9181 14.6047 23.5492 13.0129L23.4733 13.0346ZM16.3365 21.9827C16.0139 22.0619 15.681 22.0911 15.3495 22.0695C13.9923 22.0863 12.6566 21.7298 11.4883 21.0391C11.4266 20.9941 11.3554 20.9639 11.2802 20.9507C11.205 20.9375 11.1277 20.9418 11.0544 20.9632L8.75502 21.5597C8.60318 21.614 8.58148 21.5597 8.61402 21.4187C8.8201 20.7137 9.01533 19.9979 9.23226 19.2495C9.26263 19.1763 9.2755 19.097 9.26985 19.0179C9.26421 18.9388 9.24019 18.8621 9.19972 18.794C8.43245 17.597 8.04563 16.1958 8.09016 14.7747C8.13469 13.3537 8.60848 11.9794 9.44918 10.8329C10.2189 9.6906 11.3183 8.80991 12.601 8.30806C13.8837 7.80622 15.2889 7.70702 16.6294 8.02369C17.9795 8.26429 19.2234 8.91324 20.1932 9.88299C21.1629 10.8527 21.8119 12.0966 22.0525 13.4468C22.2683 14.3847 22.2898 15.3569 22.1157 16.3034C21.9416 17.25 21.5755 18.1509 21.04 18.9506C20.5045 19.7503 19.8109 20.4318 19.002 20.9533C18.1931 21.4748 17.286 21.8251 16.3365 21.9827Z" fill="white"/>
<path fill-rule="evenodd" clip-rule="evenodd" d="M17.3669 19.0542C17.0653 19.0789 16.762 19.0382 16.4776 18.9349C14.5932 18.3617 12.96 17.1645 11.8462 15.5401C11.3688 14.9509 11.0313 14.2612 10.8592 13.5227C10.7737 13.1138 10.8 12.6894 10.9356 12.2942C11.0711 11.8991 11.3108 11.5478 11.6293 11.2775C11.7883 11.1751 11.9667 11.1068 12.1534 11.077C12.3401 11.0471 12.531 11.0563 12.7139 11.104C12.7851 11.1744 12.8504 11.2506 12.9092 11.3317C13.1478 11.95 13.4081 12.514 13.6467 13.0888C13.6729 13.1449 13.6864 13.2059 13.6864 13.2678C13.6864 13.3296 13.6729 13.3907 13.6467 13.4468C13.508 13.7056 13.3327 13.9431 13.1261 14.1518C13.0908 14.1793 13.0614 14.2135 13.0395 14.2525C13.0176 14.2915 13.0038 14.3345 12.9987 14.379C12.9937 14.4234 12.9975 14.4684 13.0101 14.5114C13.0226 14.5543 13.0436 14.5943 13.0718 14.629C13.73 15.7726 14.7595 16.6567 15.9895 17.1345C16.0629 17.1745 16.1484 17.1867 16.2301 17.1688C16.3118 17.1508 16.3843 17.104 16.4342 17.0368C16.6511 16.7765 16.868 16.5054 17.0741 16.2342C17.1233 16.1571 17.2002 16.1018 17.289 16.0796C17.3777 16.0574 17.4716 16.07 17.5513 16.1149L18.7769 16.6898L19.0698 16.8199C19.4928 17.0368 19.4928 17.0585 19.4386 17.5141C19.3962 17.9066 19.2236 18.2736 18.9484 18.5566C18.6733 18.8397 18.3112 19.0225 17.9201 19.0759C17.7363 19.1084 17.5476 19.101 17.3669 19.0542Z" fill="white"/>
</svg>
