<svg width="60" height="57" viewBox="0 0 60 57" fill="none" xmlns="http://www.w3.org/2000/svg">
<path d="M26.8897 0C27.5446 0.414893 28.1716 0.867938 28.7668 1.3565C31.5055 3.83791 34.2021 6.3524 36.9128 8.86028C37.0879 9.0257 37.235 9.22422 37.3961 9.40949L37.5292 9.33009C37.5292 9.1779 37.5642 9.0257 37.5642 8.87351V4.90326C37.5462 4.58208 37.5976 4.2608 37.7153 3.95901C37.8331 3.65722 38.0146 3.38123 38.2489 3.14788C38.4832 2.91452 38.7653 2.72868 39.0781 2.60168C39.3909 2.47468 39.7278 2.40919 40.0682 2.40919C40.4087 2.40919 40.7455 2.47468 41.0583 2.60168C41.3711 2.72868 41.6532 2.91452 41.8875 3.14788C42.1218 3.38123 42.3033 3.65722 42.4211 3.95901C42.5388 4.2608 42.5902 4.58208 42.5722 4.90326C42.5722 7.77948 42.5722 10.6579 42.5722 13.5386C42.5622 13.7375 42.5998 13.9361 42.6822 14.1194C42.7647 14.3027 42.8899 14.4661 43.0485 14.5973C45.8129 17.125 48.5679 19.6638 51.3135 22.2135C51.562 22.4241 51.7634 22.6794 51.9057 22.9646C52.0481 23.2498 52.1286 23.5591 52.1425 23.8741C52.1563 24.1892 52.1033 24.5037 51.9865 24.799C51.8697 25.0944 51.6914 25.3647 51.4623 25.594C51.2332 25.8232 50.9578 26.0069 50.6523 26.134C50.3469 26.2611 50.0176 26.3292 49.6839 26.3343C49.3502 26.3393 49.0187 26.2811 48.7092 26.1632C48.3996 26.0453 48.1182 25.8701 47.8814 25.6478C45.9693 23.9075 44.0781 22.1408 42.173 20.3541L27.0858 6.38549C26.8547 6.16712 26.6656 5.89582 26.3854 5.58482L6.89957 23.5767C7.13772 23.5767 7.2778 23.6296 7.41789 23.6296H9.49114C11.6274 23.6296 12.545 24.5031 12.552 26.5411V34.8522C12.552 36.9366 12.552 39.0209 12.552 41.1119C12.552 42.1442 12.9863 42.5478 14.0859 42.5478C16.8876 42.5478 19.6893 42.5478 22.5331 42.5478C23.1048 42.5427 23.661 42.7232 24.1086 43.0593C24.5562 43.3954 24.8679 43.8666 24.9916 44.394C25.126 44.9156 25.0639 45.4652 24.8159 45.9483C24.568 46.4313 24.1496 46.8177 23.6327 47.0408C23.2428 47.2063 22.8204 47.2919 22.393 47.2923C19.5913 47.3188 16.7756 47.3188 13.9458 47.2923C13.093 47.3126 12.2447 47.168 11.4533 46.8671C10.6618 46.5663 9.94381 46.1157 9.34351 45.543C8.74321 44.9703 8.27328 44.2876 7.9626 43.537C7.65192 42.7863 7.50707 41.9836 7.53696 41.1781C7.53696 37.1373 7.53696 33.092 7.53696 29.0424V28.3807H3.8177C3.04582 28.3902 2.28946 28.1756 1.6509 27.7658C1.01235 27.3561 0.522405 26.7709 0.247343 26.0895C-0.0277194 25.4081 -0.0746316 24.6633 0.112951 23.9559C0.300533 23.2485 0.713559 22.6126 1.29617 22.1341C4.82631 18.8918 8.34945 15.6406 11.8656 12.3806C15.865 8.70147 19.8364 5.01575 23.8358 1.3565C24.4358 0.880774 25.065 0.43887 25.72 0.0330855L26.8897 0Z" fill="#1F3564"/>
<path d="M45.731 51.6529C45.5804 51.7091 45.4259 51.7556 45.2687 51.7919C43.6415 52.1317 41.9588 52.1605 40.3196 51.8765C38.6805 51.5924 37.1181 51.0013 35.7245 50.138C34.3309 49.2747 33.1343 48.1566 32.2052 46.8497C31.2761 45.5427 30.6333 44.0733 30.3146 42.5279C28.9138 35.2492 34.5172 28.6321 42.7261 28.4203C45.7257 28.3968 48.6299 29.4149 50.8871 31.2814C53.1442 33.1478 54.5971 35.7325 54.9696 38.5445C55.3994 41.2732 54.794 44.0577 53.2605 46.4056C53.2202 46.4545 53.1906 46.5106 53.1734 46.5705C53.1562 46.6303 53.1516 46.6928 53.1601 46.7543C53.1686 46.8159 53.1898 46.8752 53.2227 46.9289C53.2556 46.9826 53.2994 47.0296 53.3516 47.0673C55.1587 48.7546 56.9728 50.4354 58.7379 52.1624C59.0212 52.4483 59.2789 52.7559 59.5083 53.0822C59.8064 53.4715 59.9766 53.9351 59.9978 54.4152C60.019 54.8952 59.8901 55.3706 59.6274 55.782C59.5776 55.8568 59.5214 55.9276 59.4593 55.9937C59.2278 56.246 58.9417 56.4483 58.6202 56.587C58.2988 56.7257 57.9495 56.7974 57.5962 56.7974C57.2428 56.7974 56.8935 56.7257 56.5721 56.587C56.2506 56.4483 55.9645 56.246 55.733 55.9937C54.094 54.4585 50.8301 51.3617 49.8845 50.4751C49.8042 50.3977 49.7016 50.3445 49.5894 50.3222C49.4772 50.2998 49.3606 50.3092 49.2541 50.3493L45.731 51.6529ZM35.1545 41.231C35.3566 42.5265 35.9344 43.7439 36.8238 44.7483C37.7132 45.7527 38.8796 46.5049 40.1937 46.9216C41.5077 47.3383 42.9183 47.4032 44.269 47.1091C45.6198 46.8151 46.858 46.1735 47.8465 45.2555C48.835 44.3375 49.5353 43.1789 49.8697 41.9081C50.2041 40.6372 50.1596 39.3037 49.7411 38.0553C49.3226 36.8069 48.5465 35.6923 47.4987 34.8349C46.451 33.9776 45.1725 33.411 43.8048 33.1979C42.6387 33.0176 41.444 33.0996 40.3177 33.4373C39.1914 33.775 38.1653 34.3588 37.3226 35.1414C36.48 35.924 35.8445 36.8832 35.4678 37.9413C35.0911 38.9993 34.9838 40.1264 35.1545 41.231Z" fill="#1F3564"/>
<path d="M44.617 40.4764L46.284 38.564C46.5422 38.2683 46.6655 37.8878 46.6267 37.5062C46.588 37.1246 46.3904 36.7732 46.0773 36.5293C45.7643 36.2853 45.3616 36.1689 44.9577 36.2055C44.5537 36.2421 44.1818 36.4288 43.9235 36.7245L42.6208 38.2067L41.325 36.7245C41.0668 36.4296 40.6951 36.2438 40.2919 36.2078C39.8886 36.1718 39.4867 36.2886 39.1747 36.5326C38.8626 36.7765 38.6658 37.1276 38.6278 37.5086C38.5897 37.8895 38.7133 38.2692 38.9715 38.564L40.6385 40.4764L38.9715 42.3887C38.8436 42.5347 38.7474 42.703 38.6884 42.8841C38.6294 43.0652 38.6088 43.2555 38.6276 43.4442C38.6465 43.6328 38.7045 43.8161 38.7984 43.9836C38.8922 44.151 39.0201 44.2994 39.1747 44.4201C39.4497 44.6322 39.7933 44.7489 40.1483 44.751C40.3738 44.7517 40.5967 44.7044 40.8004 44.6128C41.004 44.5212 41.1833 44.3875 41.325 44.2216L42.6208 42.746L43.9095 44.2216C44.1668 44.5173 44.5379 44.7044 44.9412 44.7416C45.3444 44.7788 45.7468 44.6632 46.0598 44.4201C46.3729 44.1771 46.5708 43.8265 46.6102 43.4455C46.6497 43.0646 46.5272 42.6844 46.27 42.3887L44.617 40.4764Z" fill="#1F3564"/>
</svg>
