<svg width="124" height="23" viewBox="0 0 124 23" fill="none" xmlns="http://www.w3.org/2000/svg">
<path d="M60.7296 8.97606V22.1129C60.7296 22.8239 60.7296 22.8328 60 22.8328C58.7545 22.8328 57.5178 22.8328 56.2811 22.8328C55.8363 22.8328 55.6673 22.6817 55.6673 22.2284C55.6673 18.3117 55.6673 14.3949 55.6673 10.4782C55.6568 10.2503 55.7059 10.0236 55.8096 9.82044C57.4288 6.77474 59.0451 3.732 60.6584 0.692223C60.9609 0.114488 60.9965 0.123376 61.3612 0.638894C62.8737 2.77207 64.395 4.89636 65.8897 7.02954C66.1388 7.38507 66.2545 7.39395 66.5036 7.02954C67.9982 4.86081 69.5196 2.71874 71.0054 0.550011C71.0897 0.410895 71.2106 0.297553 71.3549 0.222327C71.4992 0.147102 71.6614 0.112876 71.8239 0.123376C73.2029 0.123376 74.5819 0.123376 75.952 0.123376C76.6014 0.123376 76.6281 0.123376 76.6281 0.80777V21.3396C76.6281 21.7218 76.6281 22.104 76.6281 22.4862C76.6281 22.8684 76.5125 22.8684 76.2545 22.8684H71.9751C71.9188 22.876 71.8615 22.8703 71.8077 22.8519C71.754 22.8335 71.7053 22.8027 71.6655 22.7621C71.6258 22.7216 71.596 22.6723 71.5787 22.6182C71.5614 22.5641 71.557 22.5067 71.5659 22.4506V9.50935C71.5659 9.37603 71.5659 9.24271 71.5659 9.08272C71.3167 9.1716 71.2456 9.38492 71.121 9.54491L66.6726 15.3845C66.2456 15.9533 66.1655 15.9533 65.7295 15.3845L61.2189 9.50047C61.0587 9.35825 60.9431 9.23382 60.7296 8.97606Z" fill="#1F3564"/>
<path d="M0 11.5624V0.940936C0 0.140995 0 0.140995 0.774022 0.140995C3.37189 0.140995 5.96086 0.140995 8.55872 0.140995C10.5546 0.0384193 12.5401 0.487424 14.2972 1.43868C15.123 1.93068 15.8282 2.60116 16.3608 3.40093C16.8935 4.2007 17.2402 5.10947 17.3755 6.06056C17.7613 7.90357 17.4841 9.82349 16.5925 11.4824C15.9349 12.6704 14.929 13.6289 13.71 14.2289C13.3185 14.4155 13.2562 14.5755 13.4875 14.9666C14.9644 17.3753 16.4057 19.7929 17.8559 22.2105C17.9537 22.3794 18.1762 22.5571 18.0427 22.7704C17.9093 22.9838 17.6868 22.8593 17.5 22.8593C15.9875 22.8593 14.4662 22.8593 12.9537 22.8593C12.7693 22.8753 12.5844 22.8333 12.4249 22.7393C12.2654 22.6453 12.1393 22.504 12.0641 22.3349C10.8897 20.3084 9.67972 18.2908 8.50534 16.2554C8.19395 15.7132 7.87367 15.3665 7.20641 15.4999C6.72106 15.5442 6.23268 15.5442 5.74733 15.4999C5.32918 15.4999 5.20463 15.6599 5.20463 16.0598C5.20463 18.0745 5.20463 20.0921 5.20463 22.1127C5.20463 22.8327 5.20463 22.8416 4.47509 22.8416C3.16726 22.8416 1.85943 22.8416 0.551602 22.8416C0.142349 22.8416 0.0177936 22.7082 0.0177936 22.2905C0 18.673 0 15.1177 0 11.5624ZM5.18683 7.85598V10.3625C5.18683 11.0913 5.18683 11.1002 5.88968 11.1002H7.7758C8.53958 11.1476 9.30624 11.0878 10.0534 10.9224C10.7477 10.7767 11.3631 10.3788 11.7806 9.80572C12.198 9.23267 12.3878 8.52525 12.3132 7.82043C12.3802 7.08101 12.1524 6.34505 11.6793 5.77251C11.2061 5.19998 10.5259 4.83714 9.78648 4.76288C8.35038 4.6118 6.90445 4.57613 5.46264 4.65622C5.12456 4.65622 5.15125 4.92287 5.15125 5.14507L5.18683 7.85598Z" fill="#1F3564"/>
<path d="M99.5642 22.8326C98.9236 22.8326 98.2741 22.8326 97.6336 22.8326C96.993 22.8326 96.8951 22.6549 96.7439 22.1838C96.3257 20.9305 95.8542 19.6951 95.4183 18.4418C95.3818 18.2752 95.2835 18.1285 95.1433 18.0312C95.003 17.9339 94.8311 17.8933 94.662 17.9174C92.4082 17.9174 90.1603 17.9174 87.9183 17.9174C87.7476 17.8914 87.5735 17.9323 87.4325 18.0318C87.2915 18.1312 87.1946 18.2814 87.162 18.4507C86.7261 19.7573 86.2724 21.0461 85.8097 22.3438C85.7794 22.4971 85.6916 22.6331 85.5643 22.724C85.437 22.8149 85.2797 22.8537 85.1247 22.8326C83.7457 22.8326 82.3756 22.8326 80.9966 22.8326C80.5339 22.8326 80.4627 22.6815 80.6229 22.2727C82.2955 17.8286 83.9651 13.3844 85.6318 8.94032C86.6697 6.18496 87.6958 3.42961 88.7101 0.674255C88.7621 0.469198 88.8857 0.289417 89.0586 0.167227C89.2314 0.0450366 89.4423 -0.0115502 89.6531 0.00763739C90.8186 0.0520786 91.993 0.00763739 93.1585 0.00763739C93.3451 -0.0192355 93.535 0.0253739 93.6901 0.132521C93.8452 0.239667 93.9541 0.40143 93.9948 0.585373C95.4064 4.38954 96.8269 8.18778 98.2563 11.9801C99.5316 15.3754 100.801 18.7648 102.064 22.1482C102.304 22.7793 102.278 22.8326 101.602 22.8326C100.925 22.8326 100.249 22.8326 99.5642 22.8326ZM91.3435 7.04712C91.2635 7.10934 91.2279 7.12712 91.219 7.15378C90.4983 9.16252 89.7866 11.1802 89.066 13.1889C88.9325 13.5533 89.1193 13.5978 89.4218 13.5978H93.1229C93.5321 13.5978 93.6389 13.5 93.4877 13.0822C92.9983 11.7312 92.5357 10.3624 92.0553 9.00253C91.8329 8.35369 91.6371 7.71374 91.3435 7.04712Z" fill="#1F3564"/>
<path d="M114.039 15.4021L111.904 19.1618C111.308 20.2284 110.694 21.2772 110.125 22.3527C110.058 22.5102 109.942 22.6424 109.795 22.7303C109.648 22.8181 109.477 22.8571 109.306 22.8415C107.803 22.8415 106.308 22.8415 104.804 22.8415C104.626 22.8415 104.386 22.9304 104.288 22.7082C104.19 22.486 104.386 22.3971 104.475 22.2549C106.557 18.8329 108.63 15.4021 110.703 11.9979C110.855 11.7971 110.938 11.5521 110.938 11.3002C110.938 11.0482 110.855 10.8032 110.703 10.6024C108.737 7.39377 106.797 4.16734 104.849 0.9498C104.778 0.834253 104.715 0.709818 104.635 0.594271C104.431 0.265406 104.573 0.149859 104.902 0.149859H106.415C107.464 0.149859 108.505 0.149859 109.555 0.149859C109.768 0.122289 109.983 0.165764 110.168 0.273496C110.353 0.381228 110.498 0.547154 110.578 0.745371C111.655 2.77189 112.785 4.78063 113.897 6.78937C113.968 6.9227 114.004 7.13601 114.173 7.13601C114.342 7.13601 114.377 6.91381 114.448 6.78048C115.605 4.73619 116.762 2.6919 117.892 0.629824C117.958 0.480003 118.068 0.353887 118.208 0.268177C118.348 0.182466 118.511 0.141206 118.674 0.149859C120.231 0.149859 121.779 0.149859 123.327 0.149859C123.835 0.149859 123.87 0.212077 123.603 0.647601C121.61 3.9007 119.626 7.16268 117.598 10.4247C117.403 10.6699 117.297 10.9737 117.297 11.2868C117.297 11.5999 117.403 11.9038 117.598 12.149C119.724 15.5443 121.788 18.9751 123.879 22.3882C124.102 22.7526 124.021 22.886 123.603 22.8771C121.966 22.8771 120.329 22.8771 118.683 22.8771C118.319 22.8771 118.176 22.6727 118.025 22.3971C116.839 20.2402 115.632 18.0834 114.404 15.9265C114.336 15.7198 114.21 15.5374 114.039 15.4021Z" fill="#1F3564"/>
<path d="M22.8113 11.4646V0.896531C22.8113 0.194361 22.8113 0.176584 23.5497 0.176584H37.5177C38.2561 0.141031 38.2561 0.149919 38.2561 0.896531C38.2561 1.93646 38.2561 2.98527 38.2561 4.02519C38.2561 4.54071 38.0871 4.68292 37.5889 4.68292C34.6262 4.68292 31.6636 4.68292 28.6921 4.68292C27.9625 4.68292 27.9536 4.68292 27.9536 5.39398C27.9536 6.46057 27.9536 7.52716 27.9536 8.58486C27.9536 9.10037 28.1405 9.26036 28.6298 9.2337C30.4092 9.11815 32.1885 9.17148 33.9679 9.17148C34.8576 9.17148 35.7472 9.21592 36.5835 9.21592C36.9127 9.21592 37.0106 9.35813 37.0106 9.65145C37.0106 10.8336 37.0106 12.0246 37.0106 13.2067C37.0106 13.66 36.7437 13.6867 36.3967 13.6867C33.7988 13.6867 31.201 13.6867 28.6031 13.6867C28.0871 13.6867 27.8914 13.8111 27.9092 14.3622C27.9092 15.5088 27.9092 16.6554 27.9092 17.8108C27.9092 18.2375 28.0604 18.3886 28.4875 18.3886C30.3202 18.3886 32.144 18.3886 33.9768 18.3886C34.6618 18.3886 34.6974 18.4508 34.386 19.0552C33.7811 20.2018 33.1672 21.3306 32.6067 22.4772C32.552 22.6131 32.455 22.728 32.3301 22.8048C32.2052 22.8816 32.0589 22.9163 31.9127 22.9038C29.0657 22.9038 26.2277 22.9038 23.3896 22.9038C22.8647 22.9038 22.7846 22.6816 22.7846 22.2372C22.8202 18.6108 22.8113 15.0377 22.8113 11.4646Z" fill="#1F3564"/>
<path d="M40.6672 22.8325H38.3184C37.5266 22.8325 37.5088 22.8325 37.8825 22.0948C39.2348 19.5231 40.5931 16.9544 41.9572 14.3887L46.8149 5.19827C47.6156 3.67838 48.4341 2.15849 49.2259 0.629717C49.2927 0.471352 49.4077 0.33803 49.5546 0.248681C49.7016 0.159331 49.8729 0.118497 50.0444 0.131975C51.717 0.131975 53.3896 0.131975 55.0622 0.131975C55.6761 0.131975 55.7117 0.211969 55.427 0.754152L47.9626 14.8864C46.6992 17.2863 45.4181 19.6861 44.1725 22.0948C44.0884 22.3399 43.9219 22.5482 43.7012 22.6843C43.4806 22.8205 43.2196 22.876 42.9626 22.8414C42.2063 22.7881 41.4323 22.8325 40.6672 22.8325Z" fill="#E92027"/>
</svg>
