<svg width="26" height="17" viewBox="0 0 26 17" fill="none" xmlns="http://www.w3.org/2000/svg">
<g clip-path="url(#clip0_101_1576)">
<path d="M13.455 8.94287V9.05669C13.4779 9.02081 13.4971 8.98267 13.5121 8.94287H13.455Z" fill="white"/>
<path d="M12.9727 8.94285H12.9237C12.8472 8.97497 12.7819 9.02867 12.7358 9.09732C12.6915 9.03017 12.6293 8.97666 12.5561 8.94285H12.5152H12.4581C12.4635 8.98059 12.4635 9.01893 12.4581 9.05667C12.4519 9.09433 12.438 9.13032 12.4172 9.16236H12.7276H13.0626V9.11358C13.086 9.03672 13.086 8.95467 13.0626 8.87781H12.891L12.9727 8.94285Z" fill="white"/>
<path d="M13.7487 8.04873V8.37394H13.7896V8.17882L13.8713 8.43085C13.8798 8.35249 13.8798 8.27344 13.8713 8.19508C13.8683 8.14363 13.8683 8.09205 13.8713 8.0406L13.9775 8.19508C13.9588 8.11007 13.9286 8.028 13.8876 7.95117C13.8876 7.95117 13.8386 7.95117 13.8222 8.00808L13.7487 8.04873Z" fill="white"/>
<path d="M10.8245 0H14.6395V6.45535H25.0797V10.0082H14.6395V16.4636H10.8245V10.0082H0.384308V6.45535H10.8245V0Z" fill="white"/>
<path d="M12.8095 9.44714H12.6379L12.7114 9.52032L12.8095 9.44714Z" fill="white"/>
<path d="M12.3274 8.94351V8.8866H12.2294L12.3274 8.94351Z" fill="white"/>
<path d="M11.9924 8.94351C11.98 8.98573 11.9542 9.02281 11.9189 9.0492H11.8453C11.8861 9.05328 11.9271 9.05328 11.9679 9.0492C11.9895 9.04522 12.0116 9.04522 12.0332 9.0492L11.8862 9.08985H12.0659C12.0753 9.04974 12.0753 9.00801 12.0659 8.9679C12.0638 8.94084 12.0638 8.91366 12.0659 8.8866H12.1558H12.2293H12.0577L11.9924 8.94351Z" fill="white"/>
<path d="M11.731 7.91101C11.731 7.91101 11.731 7.96792 11.731 7.97605C11.731 7.98418 11.6738 8.11427 11.6493 8.13053C11.6248 8.14679 11.5104 8.19557 11.4941 8.21996L11.3552 8.38256C11.3486 8.41748 11.3486 8.45333 11.3552 8.48825C11.3686 8.4412 11.3908 8.39707 11.4205 8.35817C11.4608 8.32237 11.4989 8.28437 11.5349 8.24435V8.34191C11.5349 8.34191 11.6084 8.285 11.6411 8.285H11.7637V7.91101H11.731Z" fill="white"/>
<path d="M13.3404 9.02417L13.4548 8.94287H13.3894C13.3404 8.94287 13.3322 9.04043 13.3404 9.02417Z" fill="white"/>
<path d="M13.2749 9.01634L13.3239 8.91064H13.2668C13.2668 8.94317 13.2668 9.01634 13.2749 9.01634Z" fill="white"/>
<path d="M13.6917 8.85381V8.78064C13.6998 8.80437 13.6998 8.83009 13.6917 8.85381Z" fill="white"/>
<path d="M13.5856 8.94285C13.5896 8.92135 13.5896 8.89931 13.5856 8.87781H13.5284C13.5284 8.87781 13.5774 8.94285 13.5856 8.94285Z" fill="white"/>
<path d="M11.4738 8.58924L11.4698 8.59182V8.66661C11.4518 8.68828 11.4379 8.71309 11.429 8.73979C11.4239 8.72391 11.4239 8.70688 11.429 8.691C11.4214 8.66719 11.4214 8.64165 11.429 8.61783L11.4698 8.59182V8.58531C11.4712 8.58661 11.4725 8.58792 11.4738 8.58924Z" fill="white"/>
<path d="M10.8245 0H0.384308V6.45535H10.8245V0Z" fill="#072D61"/>
<path d="M25.0794 10.0084H14.6392V16.4638H25.0794V10.0084Z" fill="#072D61"/>
<path d="M10.8243 10.0084H0.384125V16.4638H10.8243V10.0084Z" fill="#F3253F"/>
<path d="M25.0794 0H14.6392V6.45535H25.0794V0Z" fill="#F3253F"/>
<path d="M14.3125 6.97572L14.4024 6.93507C14.4432 6.93507 14.5167 6.93507 14.5167 6.93507C14.4736 6.80967 14.4217 6.68742 14.3615 6.56921V6.64239C14.2536 6.59542 14.1357 6.57587 14.0184 6.58547C14.0728 6.61285 14.1182 6.65517 14.1491 6.70743C14.198 6.79866 14.239 6.89386 14.2716 6.99198V6.9432L14.3125 6.97572Z" fill="#072D61"/>
<path d="M14.3942 6.62584V6.55267L14.3206 6.50389C14.3096 6.47978 14.2926 6.45889 14.2711 6.44323C14.2497 6.42756 14.2245 6.41766 14.1981 6.41445C14.1966 6.47469 14.1734 6.53237 14.1328 6.57706C14.1328 6.57706 14.1328 6.51202 14.0592 6.49576L13.7406 6.39819C13.7344 6.42493 13.7344 6.45275 13.7406 6.47949C13.8283 6.53413 13.9252 6.57268 14.0266 6.59332H14.0837C14.1884 6.58113 14.2944 6.59224 14.3942 6.62584Z" fill="#072D61"/>
<path d="M13.52 6.19507V6.25198H13.5853L13.52 6.19507Z" fill="#072D61"/>
<path d="M13.8141 6.21106V6.26797H13.8795L13.8141 6.21106Z" fill="#072D61"/>
<path d="M13.5364 6.13H13.4955V6.17879H13.5527L13.5364 6.13Z" fill="#072D61"/>
<path d="M14.0595 6.50397C14.133 6.50397 14.1248 6.57714 14.133 6.58527C14.1736 6.54059 14.1968 6.4829 14.1984 6.42267C14.2023 6.39844 14.2023 6.37373 14.1984 6.3495C14.1984 6.27633 14.0186 6.1625 13.7082 6.11372C13.5696 6.10226 13.4302 6.10226 13.2916 6.11372C13.2831 6.17705 13.2694 6.23959 13.2507 6.30072C13.1827 6.24762 13.1001 6.21642 13.0138 6.21128C13.0086 6.24904 13.0086 6.28735 13.0138 6.32511C13.0138 6.37389 13.12 6.39828 13.1527 6.39828C13.1854 6.39828 13.4713 6.39828 13.5612 6.39828H13.7654L14.0595 6.50397ZM14.133 6.30885C14.1368 6.32488 14.1368 6.34159 14.133 6.35763H14.0758H14.035L14.0922 6.19502L14.133 6.30885ZM13.3896 6.30885H13.3079V6.12998V6.28446H13.3733L13.3896 6.30885ZM13.4305 6.30885V6.13811V6.30885ZM13.5612 6.2438H13.455V6.06494H13.5285L13.5612 6.17063V6.2438ZM13.6837 6.2438H13.6102V6.26007H13.6919H13.5938V6.08933H13.6837H13.602V6.14624L13.6837 6.2438ZM13.7899 6.37389V6.29259V6.37389L13.8389 6.20315H13.8961V6.28446L13.7899 6.37389ZM13.8553 6.37389L13.9043 6.23567H13.8634H13.9615H13.9206L13.8716 6.38202L13.8553 6.37389ZM13.9043 6.37389L14.0105 6.22754V6.41454V6.34137H13.9615V6.39015L13.9043 6.37389Z" fill="#072D61"/>
<path d="M11.0694 6.62604L11.1102 6.54474C11.0478 6.66304 10.9933 6.78525 10.9468 6.9106C10.9468 6.9106 11.0285 6.9106 11.0612 6.9106L11.2001 6.96751C11.2164 6.86724 11.2438 6.76908 11.2818 6.67482C11.3168 6.62373 11.3611 6.57961 11.4125 6.54474C11.2928 6.54045 11.1742 6.56855 11.0694 6.62604Z" fill="#072D61"/>
<path d="M11.4125 6.45532C11.3308 6.45532 11.339 6.53663 11.3308 6.53663C11.3227 6.53663 11.2818 6.47159 11.2655 6.37402C11.2395 6.37856 11.215 6.38899 11.1937 6.4045C11.1725 6.42001 11.1551 6.44018 11.143 6.46345V6.54476L11.1021 6.62606C11.2086 6.57419 11.3271 6.55172 11.4452 6.56102H11.5024C11.5923 6.56102 11.772 6.49598 11.7883 6.44719C11.8047 6.39841 11.7883 6.44719 11.7883 6.37402L11.4125 6.45532Z" fill="#072D61"/>
<path d="M11.8209 6.16284C11.8166 6.17171 11.8143 6.18144 11.8143 6.1913C11.8143 6.20116 11.8166 6.21089 11.8209 6.21975C11.8145 6.2354 11.8145 6.25289 11.8209 6.26853H11.8617C11.8662 6.24983 11.8662 6.23033 11.8617 6.21162C11.8617 6.21162 11.8209 6.17097 11.8209 6.16284Z" fill="#072D61"/>
<path d="M12.1642 6.03253C12.1746 6.10157 12.191 6.16958 12.2132 6.23579C12.2132 6.23579 12.2541 6.17074 12.4747 6.08944C12.4793 6.12724 12.4793 6.16546 12.4747 6.20326C12.4747 6.28457 12.3766 6.28457 12.3358 6.28457H11.9273L11.7231 6.33335L11.4127 6.42278C11.331 6.44717 11.3392 6.49595 11.331 6.50408C11.3228 6.51221 11.2656 6.43904 11.2656 6.34148C11.2615 6.31726 11.2615 6.29252 11.2656 6.26831C11.2656 6.19513 11.4453 6.08944 11.7558 6.03253C11.8917 6.02122 12.0283 6.02122 12.1642 6.03253Z" fill="#072D61"/>
<path d="M11.5839 6.21106H11.5267L11.5757 6.34114V6.25171C11.5816 6.23898 11.5844 6.22506 11.5839 6.21106Z" fill="#072D61"/>
<path d="M12.8586 5.95972H12.7932V6.01663H12.8586V5.95972Z" fill="#072D61"/>
<path d="M12.54 5.95142V6.0002H12.5972V5.95142C12.5933 5.93814 12.5933 5.92404 12.5972 5.91077C12.585 5.91225 12.5734 5.91675 12.5634 5.92385C12.5534 5.93095 12.5453 5.94043 12.54 5.95142Z" fill="#072D61"/>
<path d="M12.4254 5.93481H12.3683V5.99986L12.4254 5.93481Z" fill="#072D61"/>
<path d="M13.0709 5.93481V5.98316H13.1195V5.97511C13.0989 5.96804 13.0816 5.95371 13.0709 5.93481Z" fill="#072D61"/>
<path d="M13.2588 6.22789C13.2775 6.16677 13.2911 6.10423 13.2996 6.0409C13.3031 6.01936 13.3031 5.9974 13.2996 5.97586C13.2996 5.91082 13.1199 5.83765 12.7114 5.83765C12.303 5.83765 12.1805 5.91082 12.1559 5.97586V6.03277C12.1663 6.10181 12.1827 6.16982 12.205 6.23602C12.205 6.23602 12.205 6.17098 12.4419 6.13033C12.5341 6.11957 12.6273 6.11957 12.7196 6.13033H13.0137C13.1037 6.13613 13.1896 6.1703 13.2588 6.22789ZM12.4419 6.00025H12.401V6.07342V5.90269H12.4909C12.4909 5.90269 12.4664 5.98399 12.4664 6.00025H12.4419ZM12.5807 6.06529V6.01651H12.5236V6.07342V5.89456L12.5971 6.06529H12.5807ZM12.7196 5.91895H12.6706V6.07342V5.91895H12.6379H12.7523H12.7196ZM12.8422 6.07342H12.8013V6.14659V5.90269H12.8912V5.95147L12.8422 6.07342ZM12.9157 6.07342V5.90269V6.07342ZM13.0709 6.07342V6.0409H13.0055V6.08968L13.0872 5.92708V6.11407L13.0709 6.07342Z" fill="#072D61"/>
<path d="M13.3485 6.08984H13.324L13.3077 6.26058L13.3894 6.26871L13.3975 6.24432H13.3322L13.3485 6.08984Z" fill="#FFCE00"/>
<path d="M13.414 6.26851H13.4304L13.4467 6.09778H13.4304L13.414 6.26851Z" fill="#FFCE00"/>
<path d="M13.6999 6.13836V6.1221L13.61 6.10583L13.5774 6.27657L13.6754 6.29283V6.27657L13.6019 6.26031L13.61 6.2034L13.6836 6.21153V6.19527L13.61 6.18714L13.6182 6.13023L13.6999 6.13836Z" fill="#FFCE00"/>
<path d="M13.9204 6.20349L13.9613 6.21975L13.9694 6.20349L13.8714 6.16284L13.8632 6.18723L13.9041 6.20349L13.8551 6.34171L13.8714 6.34984L13.9204 6.20349Z" fill="#FFCE00"/>
<path d="M13.7979 6.25198H13.7408L13.6917 6.42271V6.34141V6.42271V6.34141L13.7979 6.25198ZM13.7979 6.25198V6.19507H13.7816L13.7979 6.25198Z" fill="#FFCE00"/>
<path d="M14.0757 6.41487H14.0349L14.1329 6.36609C14.1367 6.38213 14.1367 6.39883 14.1329 6.41487H14.0757Z" fill="#FFCE00"/>
<path d="M14.0022 6.3418V6.39871V6.21985L13.896 6.36619V6.31741L14.0022 6.3418ZM14.0022 6.26863V6.35806H13.9613L14.0022 6.26863Z" fill="#FFCE00"/>
<path d="M12.6299 5.91897H12.6789V6.07344H12.6952V5.91897H12.7443V5.90271H12.6299V5.91897Z" fill="#FFCE00"/>
<path d="M12.9255 5.90016L12.9178 6.07886L12.9341 6.07955L12.9418 5.90085L12.9255 5.90016Z" fill="#FFCE00"/>
<path d="M12.4417 5.91882H12.3518V6.08956V6.01639H12.3927L12.4417 5.91882ZM12.4417 5.98386V5.91882H12.5152C12.5152 5.91882 12.4498 5.98386 12.4417 5.98386Z" fill="#FFCE00"/>
<path d="M12.5318 5.89465V6.07352V6.01661H12.589V6.06539L12.5155 5.89465H12.5318ZM12.5809 6.00035H12.5237V5.95156C12.5198 5.93829 12.5198 5.92419 12.5237 5.91091C12.5198 5.92419 12.5198 5.93829 12.5237 5.95156L12.5809 6.00035Z" fill="#FFCE00"/>
<path d="M12.8502 6.00012H12.7603V6.17086V6.00012H12.8012V5.95134L12.8502 6.00012ZM12.8502 6.00012H12.8093V5.91882H12.8747V5.9676L12.8502 6.00012Z" fill="#FFCE00"/>
<path d="M13.0872 5.91882L13.0055 6.08143V6.03265H13.0708V6.09769L13.0872 5.91882ZM13.03 6.01639V5.9676V6.01639Z" fill="#FFCE00"/>
<path d="M11.6495 6.14612L11.674 6.31685H11.6985L11.6658 6.14612H11.6495Z" fill="#FFCE00"/>
<path d="M11.6087 6.20335H11.5597H11.5107L11.5678 6.37408H11.6168C11.6168 6.37408 11.6168 6.21148 11.6087 6.20335ZM11.6087 6.30904L11.5597 6.17896H11.6168C11.62 6.19233 11.62 6.20624 11.6168 6.21961V6.27652L11.6087 6.30904Z" fill="#FFCE00"/>
<path d="M13.5364 7.80501V7.95135V8.04078H13.7488V7.67493H13.5364V7.80501Z" fill="white"/>
<path d="M11.731 7.9107V8.04078H11.9516V7.96761V7.82127V7.67493H11.731V7.9107Z" fill="white"/>
<path d="M12.7358 8.94288C12.7358 8.94288 12.6623 8.78028 12.6296 8.72337C12.6021 8.6903 12.5775 8.65494 12.5561 8.61768V8.94288C12.6293 8.9767 12.6915 9.0302 12.7358 9.09735C12.7819 9.02871 12.8472 8.975 12.9237 8.94288V8.68272H12.842C12.8162 8.77304 12.7806 8.86028 12.7358 8.94288Z" fill="white"/>
<path d="M12.9076 8.48755C12.9114 8.51724 12.9114 8.54729 12.9076 8.57698V8.49568V8.48755Z" fill="white"/>
<path d="M12.6378 7.51199H12.7276V7.2437H12.6378V7.17053H12.7113V7.09735H12.7848V7.17053H12.8583V7.2437H12.7848V7.47134H12.8747V6.65833H12.5561V7.47134L12.6378 7.51199Z" fill="white"/>
<path d="M12.9808 7.39824L13.1524 7.21938L13.3975 6.95921V7.17873L13.52 7.0893V7.6828H13.7324V6.86978L13.953 6.65027H12.9236V7.46328L12.9808 7.39824ZM13.5772 7.06491H13.5282L13.667 6.99986L13.5772 7.06491ZM13.5772 6.81287L13.4955 6.93482H13.4383L13.5772 6.81287ZM13.422 6.69092L13.3566 6.821H13.2994L13.422 6.69092Z" fill="#F41934"/>
<path d="M11.9518 7.09777L12.0743 7.1872V6.96769L12.3194 7.21972L12.4991 7.39046C12.5111 7.41058 12.5279 7.42736 12.5481 7.43924V6.62622H11.5107L11.7312 6.84574V7.65875H11.9518V7.09777ZM12.2214 6.80508H12.1642L12.107 6.675L12.2214 6.80508ZM12.0825 6.91078L12.0335 6.95143L11.9518 6.82947L12.0825 6.91078ZM11.96 7.03273L11.9109 7.08151L11.8211 6.96769L11.96 7.03273Z" fill="#072D61"/>
<path d="M12.5154 8.94346H12.5562V8.59387C12.5532 8.56957 12.5532 8.54499 12.5562 8.52069C12.4911 8.52788 12.4253 8.52788 12.3602 8.52069C12.2644 8.51705 12.1734 8.47865 12.1041 8.41274C12.0349 8.34684 11.9923 8.25799 11.9844 8.16297V8.04102H11.7638V8.2524V8.59387C11.76 8.6099 11.76 8.62661 11.7638 8.64265C11.7772 8.61586 11.8007 8.59542 11.8292 8.58574C11.8538 8.63877 11.8756 8.69305 11.8945 8.74834C11.9144 8.71257 11.9391 8.67974 11.9681 8.65078C12.0018 8.70474 12.0214 8.76622 12.0252 8.82964H12.1968V8.75647L12.2866 8.82964H12.401L12.4582 8.72395L12.5072 8.82964L12.5154 8.94346Z" fill="#F41934"/>
<path d="M13.5366 8.17103C13.5306 8.26749 13.4888 8.35832 13.4194 8.42591C13.35 8.49349 13.2578 8.53304 13.1608 8.53688H12.9729C12.9729 8.53688 12.9729 8.53688 12.9321 8.53688V8.61818V8.71575V8.94339H12.9811H13.1526V8.88648C13.1657 8.89137 13.1775 8.89898 13.1874 8.90879C13.1973 8.91861 13.2049 8.9304 13.2098 8.94339C13.2098 8.90274 13.2098 8.84583 13.2098 8.87835V8.94339H13.267L13.3078 8.85396V8.94339H13.4549H13.5202C13.5167 8.92458 13.5167 8.90529 13.5202 8.88648H13.5774C13.5774 8.8377 13.5774 8.78079 13.5774 8.78892V8.82957C13.5611 8.69455 13.5611 8.55807 13.5774 8.42306H13.6183V8.04907H13.5366V8.17103Z" fill="#072D61"/>
<path d="M12.7768 7.47152V7.24388H12.8503V7.17071H12.7768V7.09753H12.7033V7.17071H12.6379V7.24388H12.7114V7.50404L12.7768 7.47152Z" fill="#FFCE00"/>
<path d="M12.2214 6.80503L12.107 6.69934L12.1642 6.83755L12.2214 6.80503Z" fill="#FFCE00"/>
<path d="M12.548 7.55259H12.6133L12.5561 7.49568C12.5359 7.48381 12.519 7.46702 12.5071 7.4469V7.56885L12.548 7.55259Z" fill="#F41934"/>
<path d="M12.5154 7.5284V7.40645L12.3357 7.23572V7.38206L12.5154 7.5284Z" fill="white"/>
<path d="M12.1885 7.31705L12.3192 7.41461V7.22762L12.0741 6.97559V7.1951L12.1885 7.2764V7.31705Z" fill="#072D61"/>
<path d="M12.0824 6.91065L11.9517 6.82935L12.0334 6.9513L12.0824 6.91065Z" fill="#FFCE00"/>
<path d="M12.5071 8.45499C12.5071 8.45499 12.5071 8.40621 12.5071 8.38182C12.5038 8.34939 12.5038 8.3167 12.5071 8.28426C12.5071 8.28426 12.4172 8.28426 12.409 8.21922C12.4009 8.15418 12.409 8.1054 12.409 8.1054H12.4989C12.5339 8.09793 12.5701 8.09793 12.6051 8.1054C12.6051 8.05662 12.6541 8.00784 12.6704 7.96719L12.5642 7.92653C12.516 7.91414 12.4654 7.91414 12.4172 7.92653V7.44685L12.5724 7.55255L12.3763 7.39807L12.1885 7.31677V7.93466C12.109 7.92163 12.0319 7.89697 11.9597 7.86149V7.96719C11.9905 7.99472 12.0268 8.01547 12.0662 8.02808C12.1057 8.04069 12.1473 8.04487 12.1885 8.04036C12.1803 8.4306 12.3518 8.45499 12.5071 8.45499Z" fill="white"/>
<path d="M12.3276 8.54484C12.3927 8.55203 12.4585 8.55203 12.5236 8.54484C12.5226 8.52589 12.5226 8.50689 12.5236 8.48793C12.3684 8.48793 12.1969 8.48793 12.1969 8.07329C12.1557 8.07781 12.1141 8.07362 12.0747 8.06102C12.0352 8.04841 11.9989 8.02766 11.9681 8.00012V8.21964C11.9826 8.30616 12.026 8.3853 12.0912 8.44431C12.1564 8.50331 12.2397 8.53872 12.3276 8.54484Z" fill="#F41934"/>
<path d="M12.1886 7.31722L12.0742 7.23592L11.9517 7.14648V7.87007C12.0239 7.90555 12.101 7.9302 12.1804 7.94324L12.1886 7.31722Z" fill="#072D61"/>
<path d="M12.6378 7.96755C12.6341 7.94329 12.6341 7.91863 12.6378 7.89437L12.5235 7.58543L12.3683 7.47974V7.95942C12.4165 7.94702 12.4671 7.94702 12.5153 7.95942L12.6215 8.00007V7.95129L12.6378 7.96755Z" fill="#F41934"/>
<path d="M12.5807 8.12999C12.5457 8.12252 12.5095 8.12252 12.4745 8.12999H12.3847C12.3847 8.12999 12.3847 8.20316 12.3847 8.24381C12.3847 8.28447 12.4582 8.30886 12.4827 8.30886C12.51 8.24648 12.5428 8.18662 12.5807 8.12999Z" fill="#072D61"/>
<path d="M11.9597 7.03257L11.8209 6.96753L11.9189 7.08135L11.9597 7.03257Z" fill="#FFCE00"/>
<path d="M13.3893 6.69128L13.2668 6.78885L13.3239 6.82137L13.3893 6.69128Z" fill="#FFCE00"/>
<path d="M12.94 7.54502H12.9808V7.39868L12.9236 7.45559L12.94 7.54502Z" fill="#F41934"/>
<path d="M13.177 7.36602C13.177 7.29285 13.177 7.22781 13.177 7.21155L13.0055 7.39041V7.50423L13.177 7.36602Z" fill="white"/>
<path d="M13.2996 7.26036L13.4139 7.17906V6.95142L13.1689 7.21158C13.1689 7.21158 13.1689 7.29288 13.1689 7.36605L13.2996 7.26036Z" fill="#072D61"/>
<path d="M13.5447 6.81335L13.414 6.89466L13.463 6.93531L13.5447 6.81335Z" fill="#FFCE00"/>
<path d="M13.2997 7.2605L13.1772 7.36619L12.9811 7.51253H12.9403L13.0955 7.39871V7.88652C13.0499 7.87579 13.0023 7.87579 12.9566 7.88652H12.8995C12.8913 7.90885 12.8772 7.92853 12.8586 7.94343V7.98408V8.07351C12.9048 8.04797 12.9543 8.02882 13.0057 8.0166H13.0955C13.0955 8.0166 13.0955 8.08977 13.0955 8.13043C13.0955 8.17108 13.022 8.19547 12.9975 8.19547H12.8913C12.8913 8.24425 12.9321 8.31742 12.9403 8.37433C13.1037 8.37433 13.2916 8.37433 13.2916 7.95156C13.3328 7.95718 13.3747 7.95353 13.4143 7.94086C13.4539 7.9282 13.4901 7.90685 13.5203 7.87839V7.80522C13.4485 7.84166 13.3713 7.86636 13.2916 7.87839L13.2997 7.2605Z" fill="white"/>
<path d="M12.9565 8.44711C12.9592 8.46599 12.9592 8.48515 12.9565 8.50402H13.1444C13.2415 8.50018 13.3336 8.46063 13.403 8.39305C13.4725 8.32546 13.5142 8.23463 13.5202 8.13817V7.95117C13.49 7.97963 13.4538 8.00098 13.4142 8.01365C13.3746 8.02631 13.3327 8.02997 13.2915 8.02434C13.3078 8.43898 13.1199 8.44711 12.9565 8.44711Z" fill="#F41934"/>
<path d="M13.2997 7.26041V7.8783C13.3793 7.86627 13.4566 7.84157 13.5284 7.80513V7.08154L13.4549 7.17097L13.3405 7.25228L13.2997 7.26041Z" fill="#072D61"/>
<path d="M13.022 7.82965H12.9076V7.87843H12.9648C13.0104 7.86771 13.058 7.86771 13.1037 7.87843V7.39062L12.9484 7.50445L13.0383 7.75648L13.022 7.82965Z" fill="#F41934"/>
<path d="M13.0136 8.2681C13.0136 8.2681 13.1034 8.2681 13.1116 8.20306C13.1198 8.13801 13.1116 8.08923 13.1116 8.08923H13.0217C12.9703 8.10145 12.9209 8.1206 12.8747 8.14615C12.8747 8.1868 12.8747 8.22745 12.9155 8.25997L13.0136 8.2681Z" fill="#072D61"/>
<path d="M13.5774 7.07337L13.6673 6.95142L13.5284 7.02459L13.5774 7.07337Z" fill="#FFCE00"/>
<path d="M12.9565 8.4473C12.9565 8.39039 12.9157 8.31722 12.9075 8.26844C12.9075 8.26844 12.9075 8.19527 12.8666 8.15462V8.06519C12.8666 8.06519 12.8666 8.13023 12.8666 8.15462C12.8957 8.23104 12.9176 8.30996 12.932 8.39039C12.9288 8.42012 12.9288 8.4501 12.932 8.47982C12.932 8.47982 12.932 8.47982 12.9728 8.47982C12.9684 8.46852 12.9629 8.45764 12.9565 8.4473Z" fill="#F41934"/>
<path d="M12.9075 8.47145C12.9043 8.44172 12.9043 8.41174 12.9075 8.38201C12.8931 8.30159 12.8712 8.22266 12.8422 8.14624C12.8422 8.26006 12.8422 8.56088 12.8422 8.63405H12.9402V8.53649C12.944 8.5068 12.944 8.47674 12.9402 8.44706L12.9075 8.47145Z" fill="#F41934"/>
<path d="M12.7441 8.63411C12.7441 8.47963 12.7033 8.29264 12.7033 8.21134C12.7062 8.12264 12.7227 8.0349 12.7523 7.95117C12.6689 8.07418 12.6208 8.21757 12.6134 8.36581C12.6134 8.49589 12.6134 8.59345 12.6134 8.69102C12.6134 8.78858 12.7196 8.91053 12.7196 8.91053C12.7357 8.81925 12.7439 8.72677 12.7441 8.63411Z" fill="white"/>
<path d="M12.6379 8.36606C12.6453 8.21783 12.6933 8.07443 12.7768 7.95143C12.7502 7.94327 12.7217 7.94327 12.6951 7.95143V8.00021C12.6951 8.04086 12.6461 8.08964 12.6297 8.13842C12.6046 8.18564 12.5827 8.23453 12.5644 8.28476C12.5611 8.3172 12.5611 8.34989 12.5644 8.38232C12.5644 8.38232 12.5644 8.43111 12.5644 8.4555C12.5633 8.47445 12.5633 8.49345 12.5644 8.51241C12.5613 8.5367 12.5613 8.56128 12.5644 8.58558C12.5858 8.62284 12.6104 8.6582 12.6379 8.69127C12.6379 8.59371 12.6379 8.49615 12.6379 8.36606Z" fill="#003F8E"/>
<path d="M12.8907 7.8943V7.84595H12.8422L12.8907 7.8943Z" fill="#F41934"/>
<path d="M12.7604 7.927C12.7308 8.01073 12.7143 8.09846 12.7114 8.18717C12.7114 8.26847 12.7114 8.45546 12.7522 8.60994C12.7601 8.70191 12.7601 8.79439 12.7522 8.88636C12.796 8.80893 12.8316 8.72719 12.8584 8.64246C12.8584 8.56928 12.8584 8.26847 12.8584 8.15465C12.8584 8.15465 12.8584 8.09774 12.8584 8.06521V8.02456C12.8584 8.02456 12.8094 7.93513 12.7604 7.927Z" fill="#F41934"/>
<path d="M12.8912 7.89429C12.8671 7.88729 12.8416 7.88729 12.8176 7.89429H12.7196C12.7159 7.91854 12.7159 7.94321 12.7196 7.96746C12.7462 7.95931 12.7747 7.95931 12.8013 7.96746C12.8503 7.96746 12.883 8.04063 12.8993 8.05689C12.9179 8.04199 12.932 8.02231 12.9402 7.99998C12.9402 7.99998 12.8993 7.91055 12.8912 7.89429Z" fill="#F41934"/>
<path d="M12.5316 7.58523L12.646 7.89418H12.744C12.768 7.88717 12.7935 7.88717 12.8175 7.89418H12.8666H12.9809H12.9156L12.8257 7.94296H12.744L12.6378 7.89418L12.5071 7.56897L12.5316 7.58523Z" fill="black"/>
<path d="M12.548 7.55325L12.6787 7.87846L12.7768 7.83781H12.8585L12.9483 7.78902H13.0382L12.9483 7.53699V7.45569H12.8585H12.8094H12.6379L12.548 7.55325Z" fill="white"/>
<path d="M12.638 9.75623C12.638 9.75623 12.5236 9.75623 12.4746 9.75623L12.2867 9.87818L12.3848 9.92696H12.5073C12.5729 9.89224 12.6311 9.84532 12.6789 9.78875L12.638 9.75623Z" fill="#007C63"/>
<path d="M12.7358 9.52046H12.7767H12.8747L12.9727 9.43103H12.7767L12.7358 9.52046Z" fill="#007C63"/>
<path d="M13.9051 7.452L13.896 7.46376C13.896 7.46376 13.8993 7.45905 13.9051 7.452C13.9231 7.42978 13.965 7.38442 14.0022 7.39059C14.0512 7.39872 14.1493 7.61011 14.1493 7.61011H14.1002V7.66702L14.0594 7.60198L14.0104 7.50441C14.0063 7.55582 14.0063 7.60748 14.0104 7.65889L13.9695 7.61011C13.9665 7.64799 13.9665 7.68605 13.9695 7.72393C13.9783 7.76137 13.9783 7.80031 13.9695 7.83775L13.896 7.7158L13.945 8.00035C13.945 8.00035 13.9042 7.88653 13.8797 7.88653C13.8552 7.88653 13.8225 8.00848 13.8062 8.05727C13.7898 8.10605 13.8552 8.00035 13.8715 8.00035C13.9125 8.07718 13.9428 8.15925 13.9614 8.24426L13.8552 8.08979C13.8522 8.14123 13.8522 8.19281 13.8552 8.24426C13.8637 8.32262 13.8637 8.40167 13.8552 8.48003L13.7735 8.228V8.42312H13.7326H13.6918C13.6754 8.55814 13.6754 8.69462 13.6918 8.82963V8.84589C13.6966 8.86456 13.6966 8.88414 13.6918 8.9028C13.6958 8.9243 13.6958 8.94634 13.6918 8.96784C13.6882 8.98665 13.6882 9.00595 13.6918 9.02475C13.6767 9.06455 13.6575 9.1027 13.6346 9.13858V8.94345L13.5611 9.05728V8.94345V8.85402L13.5202 8.94345L13.4712 9.04914V8.94345C13.4663 8.93046 13.4587 8.91867 13.4488 8.90885C13.4389 8.89904 13.4271 8.89143 13.414 8.88654V8.94345C13.4374 9.02032 13.4374 9.10236 13.414 9.17923V9.22801C13.9532 9.22801 14.2309 9.35809 14.2309 9.45565H14.3535L14.2228 9.38248H14.3943C14.3943 9.38248 14.28 9.30118 14.2718 9.28492H14.3617L14.4107 9.3337C14.4107 9.3337 14.4107 9.43126 14.4515 9.44752C14.4924 9.46378 14.5005 9.34183 14.5005 9.31744C14.5005 9.29305 14.4352 9.2524 14.4352 9.2524L14.5659 9.30118L14.5005 9.19549H14.6312L14.5495 9.10606C14.5819 9.0997 14.6152 9.0997 14.6476 9.10606H14.7538V9.04101C14.724 9.01068 14.6911 8.98344 14.6557 8.95971H14.8436L14.7255 8.86826L14.6966 8.84589H14.8191L14.7255 8.86826L14.8436 8.95971H14.6557C14.6911 8.98344 14.724 9.01068 14.7538 9.04101V9.10606H14.6476C14.6152 9.0997 14.5819 9.0997 14.5495 9.10606L14.6312 9.19549H14.5005L14.5659 9.30118L14.4352 9.2524C14.4352 9.2524 14.5005 9.29305 14.5005 9.31744C14.5005 9.34183 14.4924 9.46378 14.4515 9.44752C14.4107 9.43126 14.4107 9.3337 14.4107 9.3337L14.3617 9.28492H14.2718C14.28 9.30118 14.3943 9.38248 14.3943 9.38248H14.2228L14.3535 9.45565H14.2309C14.2309 9.35809 13.9532 9.22801 13.414 9.22801V9.17923C13.4374 9.10236 13.4374 9.02032 13.414 8.94345V8.88654C13.4271 8.89143 13.4389 8.89904 13.4488 8.90885C13.4587 8.91867 13.4663 8.93046 13.4712 8.94345V9.04914L13.5202 8.94345L13.5611 8.85402V8.94345V9.05728L13.6346 8.94345V9.13858C13.6575 9.1027 13.6767 9.06455 13.6918 9.02475C13.6882 9.00595 13.6882 8.98665 13.6918 8.96784C13.6958 8.94634 13.6958 8.9243 13.6918 8.9028V8.84589V8.82963C13.6754 8.69462 13.6754 8.55814 13.6918 8.42312H13.7326H13.7735V8.228L13.8552 8.48003C13.8637 8.40167 13.8637 8.32262 13.8552 8.24426C13.8522 8.19281 13.8522 8.14123 13.8552 8.08979L13.9614 8.24426C13.9428 8.15925 13.9125 8.07718 13.8715 8.00035C13.8552 8.00035 13.7898 8.10605 13.8062 8.05727C13.8225 8.00848 13.8552 7.88653 13.8797 7.88653C13.9042 7.88653 13.945 8.00035 13.945 8.00035L13.896 7.7158L13.9695 7.83775C13.9783 7.80031 13.9783 7.76137 13.9695 7.72393C13.9665 7.68605 13.9665 7.64799 13.9695 7.61011L14.0104 7.65889C14.0063 7.60748 14.0063 7.55582 14.0104 7.50441L14.0594 7.60198L14.1002 7.66702V7.61011H14.1493C14.1493 7.61011 14.0512 7.39872 14.0022 7.39059C13.965 7.38442 13.9231 7.42978 13.9051 7.452Z" fill="#007C63"/>
<path d="M11.4942 8.97551C11.4957 8.971 11.4973 8.96651 11.4989 8.96204C11.5015 8.91502 11.4999 8.86784 11.4942 8.82103C11.4771 8.79281 11.4565 8.76682 11.4329 8.74366L11.4288 8.74624V8.82103C11.4108 8.8427 11.3969 8.86751 11.388 8.8942C11.383 8.87833 11.383 8.8613 11.388 8.84542C11.3805 8.82161 11.3805 8.79607 11.388 8.77225L11.4288 8.74624V8.73973C11.4302 8.74103 11.4315 8.74234 11.4329 8.74366L11.5922 8.64217C11.5922 8.64217 11.6331 8.51209 11.6331 8.49583C11.6331 8.47957 11.6331 8.49583 11.6903 8.43078H11.5677L11.4615 8.4877V8.39013C11.4255 8.43016 11.3874 8.46816 11.3471 8.50396C11.3174 8.54286 11.2952 8.58699 11.2818 8.63404C11.2915 8.63404 11.301 8.6369 11.309 8.64226C11.3171 8.64762 11.3234 8.65524 11.3271 8.66415C11.3308 8.67307 11.3318 8.68287 11.3299 8.69234C11.328 8.7018 11.3233 8.71049 11.3165 8.71731C11.3096 8.72414 11.3009 8.72878 11.2914 8.73066C11.2818 8.73255 11.272 8.73158 11.263 8.72789C11.2541 8.7242 11.2464 8.71794 11.241 8.70992C11.2357 8.7019 11.2328 8.69247 11.2328 8.68282C11.2285 8.6754 11.2262 8.66699 11.2262 8.65843C11.2262 8.64987 11.2285 8.64145 11.2328 8.63404C11.2272 8.60485 11.2263 8.57502 11.23 8.54562C11.2308 8.53984 11.2317 8.53408 11.2328 8.52835L11.2349 8.52584C11.2266 8.49308 11.2149 8.46123 11.2001 8.43078C11.2003 8.41914 11.1962 8.40782 11.1887 8.39887C11.1813 8.38993 11.1708 8.38394 11.1593 8.382C11.0858 8.37093 11.0159 8.34311 10.955 8.3007C10.9144 8.22371 10.8842 8.1417 10.8652 8.0568C10.8537 8.03153 10.8334 8.01129 10.808 7.99989H10.9142V7.89419C10.9062 7.86216 10.9062 7.82867 10.9142 7.79663C10.9142 7.79663 10.906 7.87793 10.9795 7.87793H11.0531L11.1347 7.9755C11.1295 7.94865 11.1295 7.92104 11.1347 7.89419C11.1331 7.91313 11.1331 7.93217 11.1347 7.95111C11.1548 7.99299 11.1712 8.03651 11.1838 8.08119V8.33322C11.2066 8.38863 11.2323 8.44279 11.2608 8.49549L11.2655 8.49009V8.34948V8.18688C11.2671 8.1598 11.2671 8.13266 11.2655 8.10558L11.3145 8.18688C11.3308 8.18688 11.3717 8.26005 11.3717 8.26005V8.17875C11.325 8.14119 11.2838 8.09742 11.2491 8.04867C11.245 8.00812 11.245 7.96726 11.2491 7.92671C11.2116 7.90864 11.176 7.88685 11.1429 7.86167C11.0912 7.79779 11.0447 7.72981 11.004 7.65842H11.0449C11.0252 7.61717 11.0115 7.57339 11.004 7.52834V7.41451L11.0694 7.49582V7.53647C11.1102 7.53647 11.1102 7.48769 11.1102 7.48769C11.1104 7.47604 11.1064 7.46472 11.0989 7.45578C11.0914 7.44683 11.0809 7.44084 11.0694 7.43891C11.0377 7.3747 11.0157 7.30622 11.004 7.23565C11.0301 7.18772 11.0631 7.14388 11.1021 7.10557L11.1593 7.195L11.2655 7.04053C11.2869 7.06726 11.3035 7.09753 11.3145 7.12996V7.21126H11.3635C11.3471 7.22752 11.3063 7.31695 11.3063 7.31695C11.2839 7.3635 11.2674 7.41267 11.2573 7.4633C11.2534 7.49298 11.2534 7.52304 11.2573 7.55273C11.2517 7.56851 11.2517 7.58573 11.2573 7.60151C11.253 7.60892 11.2507 7.61734 11.2507 7.6259C11.2507 7.63446 11.253 7.64287 11.2573 7.65029C11.2613 7.67724 11.2613 7.70464 11.2573 7.73159C11.2596 7.7695 11.2596 7.80751 11.2573 7.84541H11.3145C11.3304 7.84154 11.3442 7.83187 11.3533 7.81832C11.3624 7.80477 11.366 7.78833 11.3635 7.77224C11.3553 7.74785 11.2818 7.65029 11.2818 7.65029C11.2777 7.56904 11.2777 7.48764 11.2818 7.40638L11.388 7.4633L11.4615 7.37386C11.4651 7.33329 11.4651 7.29248 11.4615 7.25191L11.5105 7.38199L11.5269 7.36573V7.34134L11.5759 7.31695L11.5269 7.36573V7.43078C11.5349 7.52003 11.5349 7.60982 11.5269 7.69907C11.4657 7.77074 11.4003 7.83862 11.3308 7.90232V8.00802L11.4615 7.90232V7.99176C11.4639 8.01337 11.4639 8.03518 11.4615 8.0568H11.5514H11.6086C11.6086 8.0568 11.6249 8.10558 11.6086 8.12184C11.5922 8.1381 11.5432 8.25192 11.5269 8.27631C11.5105 8.3007 11.3717 8.36574 11.3717 8.36574L11.2655 8.49009V8.50396C11.2639 8.50114 11.2624 8.49832 11.2608 8.49549L11.2349 8.52584C11.2372 8.53474 11.2392 8.54371 11.2409 8.55274C11.2373 8.55033 11.2337 8.54795 11.23 8.54562C11.2263 8.57502 11.2272 8.60485 11.2328 8.63404C11.2285 8.64145 11.2262 8.64987 11.2262 8.65843C11.2262 8.66699 11.2285 8.6754 11.2328 8.68282C11.2328 8.69247 11.2357 8.7019 11.241 8.70992C11.2464 8.71794 11.2541 8.7242 11.263 8.72789C11.272 8.73158 11.2818 8.73255 11.2914 8.73066C11.3009 8.72878 11.3096 8.72414 11.3165 8.71731C11.3233 8.71049 11.328 8.7018 11.3299 8.69234C11.3318 8.68287 11.3308 8.67307 11.3271 8.66415C11.3234 8.65524 11.3171 8.64762 11.309 8.64226C11.301 8.6369 11.2915 8.63404 11.2818 8.63404C11.2952 8.58699 11.3174 8.54286 11.3471 8.50396C11.3874 8.46816 11.4255 8.43016 11.4615 8.39013V8.4877L11.5677 8.43078H11.6903C11.6331 8.49583 11.6331 8.47957 11.6331 8.49583C11.6331 8.51209 11.5922 8.64217 11.5922 8.64217L11.4329 8.74366C11.4565 8.76682 11.4771 8.79281 11.4942 8.82103C11.4999 8.86784 11.5015 8.91502 11.4989 8.96204C11.4982 8.97616 11.497 8.99027 11.4955 9.00435C11.5001 9.05969 11.5163 9.11358 11.5432 9.1625L11.5841 9.20315C11.5841 9.20315 11.5841 9.25193 11.5432 9.25193C11.5024 9.25193 11.5432 9.25193 11.5432 9.20315L11.4942 9.14624V9.01616C11.4947 9.01222 11.4951 9.00829 11.4955 9.00435C11.4947 8.99477 11.4943 8.98515 11.4942 8.97551Z" fill="#007C63"/>
<path d="M12.6378 9.57723H12.7032H12.7522L12.6378 9.44714H12.4826L12.5888 9.55284L12.6378 9.57723Z" fill="#007C63"/>
<path d="M12.8093 9.75623C12.8903 9.83626 12.9842 9.90221 13.087 9.95135L13.1606 9.85379C13.1003 9.83033 13.0427 9.80034 12.989 9.76436C12.9318 9.75623 12.8256 9.75623 12.8093 9.75623Z" fill="#007C63"/>
<path d="M11.0941 7.51236C11.0941 7.51236 11.1349 7.51236 11.1349 7.46358C11.1351 7.45193 11.1311 7.44061 11.1236 7.43167C11.1161 7.42272 11.1056 7.41673 11.0941 7.41479C11.0941 7.41479 11.0941 7.41479 11.0941 7.41479V7.51236Z" fill="#F41934"/>
<path d="M11.3226 7.82944C11.3172 7.82014 11.3089 7.81288 11.2989 7.80877C11.2889 7.80466 11.2779 7.80394 11.2674 7.80672C11.257 7.8095 11.2478 7.81562 11.2412 7.82414C11.2347 7.83266 11.2311 7.8431 11.2311 7.85383C11.2311 7.86457 11.2347 7.87501 11.2412 7.88353C11.2478 7.89205 11.257 7.89817 11.2674 7.90095C11.2779 7.90373 11.2889 7.90301 11.2989 7.8989C11.3089 7.89479 11.3172 7.88752 11.3226 7.87822C11.3269 7.87081 11.3291 7.8624 11.3291 7.85383C11.3291 7.84527 11.3269 7.83686 11.3226 7.82944Z" fill="#F41934"/>
<path d="M11.4042 7.97566C11.4141 7.97732 11.4242 7.97593 11.4333 7.97168C11.4424 7.96743 11.4499 7.96052 11.4549 7.95188C11.4599 7.94323 11.4621 7.93328 11.4612 7.92335C11.4604 7.91342 11.4565 7.90399 11.45 7.89634C11.4436 7.88868 11.435 7.88316 11.4254 7.88052C11.4157 7.87789 11.4055 7.87826 11.396 7.88158C11.3866 7.88491 11.3784 7.89104 11.3726 7.89913C11.3667 7.90723 11.3635 7.91692 11.3634 7.92688C11.3632 7.93853 11.3672 7.94985 11.3747 7.95879C11.3822 7.96774 11.3927 7.97372 11.4042 7.97566Z" fill="#F41934"/>
<path d="M11.2574 8.53633C11.2574 8.54598 11.2603 8.55541 11.2657 8.56343C11.2711 8.57145 11.2787 8.57771 11.2877 8.5814C11.2966 8.58509 11.3065 8.58606 11.316 8.58417C11.3255 8.58229 11.3342 8.57765 11.3411 8.57082C11.3479 8.564 11.3526 8.55531 11.3545 8.54585C11.3564 8.53638 11.3554 8.52658 11.3517 8.51766C11.348 8.50875 11.3417 8.50113 11.3337 8.49577C11.3256 8.49041 11.3161 8.48755 11.3064 8.48755C11.2934 8.48755 11.281 8.49269 11.2718 8.50184C11.2626 8.51099 11.2574 8.52339 11.2574 8.53633Z" fill="#F41934"/>
<path d="M11.4288 8.99222C11.4403 8.99028 11.4508 8.98429 11.4583 8.97535C11.4658 8.9664 11.4698 8.95508 11.4696 8.94343C11.4698 8.93179 11.4658 8.92047 11.4583 8.91152C11.4508 8.90258 11.4403 8.89659 11.4288 8.89465V8.9353C11.4213 8.9429 11.4171 8.95312 11.4171 8.96376C11.4171 8.9744 11.4213 8.98462 11.4288 8.99222Z" fill="#F41934"/>
<path d="M11.6086 9.04859V9.09737C11.6086 9.09737 11.6494 9.09737 11.6494 9.04859L11.6086 9.00793C11.605 9.01411 11.6031 9.02112 11.6031 9.02826C11.6031 9.0354 11.605 9.04241 11.6086 9.04859Z" fill="#F41934"/>
<path d="M11.7637 9.00788C11.7538 9.00622 11.7437 9.00761 11.7346 9.01187C11.7256 9.01612 11.718 9.02303 11.713 9.03167C11.708 9.04031 11.7058 9.05027 11.7067 9.0602C11.7076 9.07013 11.7115 9.07956 11.7179 9.08721C11.7243 9.09487 11.7329 9.10039 11.7426 9.10302C11.7522 9.10566 11.7625 9.10529 11.7719 9.10197C11.7813 9.09864 11.7895 9.09251 11.7954 9.08441C11.8012 9.07631 11.8044 9.06663 11.8045 9.05666C11.8047 9.04502 11.8007 9.0337 11.7932 9.02475C11.7857 9.01581 11.7752 9.00982 11.7637 9.00788Z" fill="#F41934"/>
<path d="M12.107 9.08167C12.1027 9.08908 12.1004 9.09749 12.1004 9.10606C12.1004 9.11462 12.1027 9.12303 12.107 9.13045V9.17923C12.107 9.17923 12.1478 9.17923 12.1478 9.13045C12.148 9.1188 12.144 9.10748 12.1365 9.09854C12.129 9.08959 12.1185 9.0836 12.107 9.08167Z" fill="#F41934"/>
<path d="M14.19 9.75646C14.1913 9.7444 14.1898 9.73221 14.1858 9.72077C14.1817 9.70934 14.1751 9.69896 14.1665 9.69038C14.1579 9.68181 14.1475 9.67526 14.136 9.67122C14.1245 9.66718 14.1122 9.66574 14.1001 9.66703L13.9204 9.73207C13.9166 9.75631 13.9166 9.781 13.9204 9.80524C13.9204 9.84589 13.9939 9.87028 14.0511 9.87841H14.2717C14.3125 9.87841 14.3779 9.95971 14.3779 9.95971C14.4327 9.88523 14.4958 9.81706 14.5658 9.75646C14.5224 9.71933 14.4715 9.69209 14.4164 9.67664C14.3614 9.66119 14.3036 9.65791 14.2472 9.66703C14.2309 9.6985 14.2117 9.72843 14.19 9.75646Z" fill="#F41934"/>
<path d="M13.7734 9.65866C13.7162 9.65866 13.6835 9.57736 13.561 9.58549C13.561 9.58549 13.512 9.58549 13.512 9.63427C13.512 9.68305 13.6427 9.75622 13.7162 9.75622L13.8959 9.70744L14.0756 9.6424C14.0878 9.64112 14.1 9.64255 14.1115 9.6466C14.123 9.65064 14.1334 9.65718 14.142 9.66576C14.1506 9.67433 14.1572 9.68472 14.1613 9.69615C14.1653 9.70758 14.1668 9.71977 14.1655 9.73183C14.184 9.7061 14.2004 9.67891 14.2145 9.65053C14.22 9.6292 14.22 9.60682 14.2145 9.58549C14.2145 9.58549 14.1655 9.4798 14.0675 9.4798C14.0078 9.47223 13.9474 9.47223 13.8877 9.4798C13.8862 9.51699 13.8748 9.55312 13.8547 9.58453C13.8346 9.61594 13.8066 9.64151 13.7734 9.65866Z" fill="#F41934"/>
<path d="M11.2901 9.75638C11.2901 9.75638 11.2901 9.75638 11.2329 9.67508C11.1765 9.66597 11.1187 9.66925 11.0637 9.6847C11.0086 9.70015 10.9576 9.72739 10.9143 9.76451C10.9865 9.82289 11.0497 9.89135 11.1022 9.96777C11.1022 9.96777 11.1676 9.8946 11.2084 9.88647H11.4453C11.5107 9.88647 11.576 9.88647 11.576 9.81329V9.74012L11.3881 9.67508C11.3881 9.67508 11.2901 9.65069 11.2901 9.75638Z" fill="#F41934"/>
<path d="M11.682 9.66643C11.633 9.66643 11.5513 9.59326 11.5268 9.50383C11.4725 9.4984 11.4178 9.4984 11.3634 9.50383C11.2654 9.50383 11.2001 9.56887 11.2082 9.60952C11.2027 9.63085 11.2027 9.65323 11.2082 9.67456C11.2082 9.71522 11.2654 9.764 11.2654 9.75587C11.2654 9.74774 11.3063 9.6583 11.3471 9.66643L11.535 9.73148L11.7065 9.78026C11.7882 9.78026 11.9108 9.70709 11.9108 9.6583C11.9108 9.60952 11.9108 9.61765 11.8618 9.60139C11.809 9.6392 11.7468 9.66171 11.682 9.66643Z" fill="#F41934"/>
<path d="M12.589 9.29297V9.33326H12.6375L12.589 9.29297Z" fill="#F41934"/>
<path d="M12.9401 9.28491C12.9401 9.28491 12.9401 9.28491 12.9401 9.33326C12.9464 9.31775 12.9464 9.30042 12.9401 9.28491C12.9401 9.30103 12.9401 9.28491 12.9401 9.28491Z" fill="#F41934"/>
<path d="M12.8177 9.32556C12.8227 9.31247 12.8227 9.298 12.8177 9.28491V9.39873H12.8667L12.8177 9.32556Z" fill="#F41934"/>
<path d="M12.7521 9.19547H13.087C13.6262 9.23612 13.8958 9.32556 13.9366 9.49629V9.54507C13.9267 9.58348 13.9061 9.61833 13.8772 9.64565C13.8483 9.67297 13.8123 9.69164 13.7732 9.69954C13.716 9.69141 13.6834 9.62637 13.5608 9.62637C13.6017 9.57759 13.6017 9.57759 13.6017 9.57759C13.3994 9.52399 13.1899 9.50204 12.9808 9.51255H12.4825C12.2683 9.51068 12.0546 9.53249 11.8453 9.57759C11.7911 9.63465 11.7191 9.67188 11.6411 9.68328C11.5921 9.68328 11.4859 9.61011 11.4859 9.52068C11.4819 9.50191 11.4819 9.48253 11.4859 9.46377C11.4859 9.42312 11.5349 9.33369 11.6247 9.33369C11.6315 9.33115 11.6383 9.32864 11.6452 9.32617L11.6247 9.27677L11.6566 9.32207C11.9082 9.23256 12.1743 9.18962 12.4416 9.19547H12.7521Z" fill="#F41934"/>
<path d="M12.1801 9.32507H12.1315V9.37342L12.1801 9.32507Z" fill="#F41934"/>
<path d="M12.2131 9.36597H12.1559V9.41475H12.205L12.2131 9.36597Z" fill="#F41934"/>
<path d="M11.9515 9.34998H11.8943V9.39876L11.9515 9.34998Z" fill="#F41934"/>
<path d="M11.821 9.44717L11.8047 9.40652L11.8619 9.38213L11.8537 9.36587L11.7965 9.39026L11.7802 9.34961L11.8455 9.32522V9.30896L11.7639 9.33335L11.8047 9.47156L11.8946 9.44717L11.8864 9.43091L11.821 9.44717Z" fill="#FFCE00"/>
<path d="M12.115 9.3575V9.26807V9.3575V9.2762V9.36563H12.1722C12.1648 9.35842 12.1552 9.35375 12.1449 9.35229C12.1347 9.35083 12.1242 9.35265 12.115 9.3575Z" fill="#FFCE00"/>
<path d="M12.2782 9.25195H12.2619V9.3983H12.3354V9.38204H12.2782V9.25195Z" fill="#FFCE00"/>
<path d="M12.3846 9.25195H12.3683V9.3983H12.3846V9.25195Z" fill="#FFCE00"/>
<path d="M12.4906 9.37402H12.4501H12.4906C12.4898 9.38744 12.4898 9.4009 12.4906 9.41431C12.4906 9.41431 12.4906 9.41431 12.4906 9.37402Z" fill="#FFCE00"/>
<path d="M13.1118 9.25195V9.34951V9.25195V9.39017V9.27634V9.39017L13.1527 9.27634V9.39017L13.1118 9.25195Z" fill="#FFCE00"/>
<path d="M13.1527 9.26001H13.1363V9.40635H13.1527V9.26001Z" fill="#FFCE00"/>
<path d="M13.267 9.26001H13.2588V9.37383L13.2016 9.26001H13.1853V9.39822H13.2016V9.29253L13.2506 9.39822H13.267V9.26001Z" fill="#FFCE00"/>
<path d="M13.324 9.26807H13.3077V9.40628H13.324V9.26807Z" fill="#FFCE00"/>
<path d="M13.4545 9.38208H13.414C13.414 9.38208 13.414 9.38208 13.414 9.42237C13.4193 9.42237 13.4246 9.42133 13.4295 9.4193C13.4344 9.41728 13.4389 9.41431 13.4427 9.41057C13.4464 9.40683 13.4494 9.40239 13.4514 9.3975C13.4535 9.39261 13.4545 9.38737 13.4545 9.38208Z" fill="#FFCE00"/>
<path d="M13.6182 9.34148L13.6509 9.47156L13.6672 9.47969L13.6999 9.32522H13.6917L13.6591 9.44717L13.6264 9.31709L13.61 9.30896L13.5774 9.4553L13.5937 9.46343L13.6182 9.34148Z" fill="#FFCE00"/>
<path d="M11.6984 9.5202V9.46329H11.7474H11.6984H11.6575L11.6984 9.5202ZM11.6984 9.37385V9.32507V9.37385Z" fill="#FFCE00"/>
<path d="M11.919 9.37391H11.8373V9.52025L11.919 9.37391ZM11.919 9.30073H11.87V9.25195L11.919 9.30073Z" fill="#FFCE00"/>
<path d="M12.2294 9.35799V9.30108H12.164V9.44742H12.2375L12.2294 9.35799ZM12.1803 9.27669H12.1395V9.22791L12.1803 9.27669ZM12.1803 9.38238H12.1395V9.3336H12.1967L12.1803 9.38238Z" fill="#FFCE00"/>
<path d="M12.6378 9.34959V9.39837V9.2439L12.597 9.39837V9.34959H12.6378ZM12.6378 9.29268V9.33333H12.597L12.6378 9.29268Z" fill="#FFCE00"/>
<path d="M12.8259 9.37376C12.831 9.36067 12.831 9.3462 12.8259 9.33311H12.7442V9.47945H12.8178L12.8259 9.37376ZM12.8259 9.37376V9.26807C12.831 9.28115 12.831 9.29563 12.8259 9.30872V9.37376Z" fill="#FFCE00"/>
<path d="M13.5447 9.28491L13.463 9.42312H13.512V9.47191L13.5447 9.28491ZM13.5447 9.33369V9.41499H13.5038L13.5447 9.33369Z" fill="#FFCE00"/>
<path d="M13.7817 9.35791L13.6837 9.47986H13.7245V9.52864V9.36604L13.7817 9.35791ZM13.7817 9.43921V9.47986V9.43921Z" fill="#FFCE00"/>
<path d="M12.9974 9.63434V9.69125L13.0873 9.7319V9.59369C13.0365 9.57945 12.9828 9.57945 12.9321 9.59369L12.9974 9.63434Z" fill="#F41934"/>
<path d="M12.4663 9.64203V9.58512C12.4183 9.57156 12.3673 9.57156 12.3193 9.58512V9.72333L12.4091 9.68268L12.4663 9.64203Z" fill="#F41934"/>
<path d="M12.8096 9.70743V9.56921H12.7197H12.6544V9.75621H12.6952H12.7524L12.8096 9.70743Z" fill="#F41934"/>
<path d="M12.9974 9.63442V9.69947C12.976 9.69358 12.9534 9.69358 12.9321 9.69947C12.8943 9.69222 12.8555 9.69222 12.8177 9.69947C12.8177 9.69947 12.9402 9.69947 12.9811 9.69947C12.9811 9.69947 13.0219 9.69947 12.9811 9.69947V9.61816L12.9974 9.63442Z" fill="#F41934"/>
<path d="M12.8093 9.63399V9.70716C12.8471 9.69991 12.8859 9.69991 12.9237 9.70716C12.945 9.70127 12.9676 9.70127 12.989 9.70716V9.58521C12.989 9.58521 12.989 9.58521 12.9237 9.58521H12.8256L12.8093 9.63399Z" fill="#F41934"/>
<path d="M12.6379 9.75641C12.6004 9.7464 12.5609 9.7464 12.5235 9.75641C12.5132 9.75193 12.5021 9.74962 12.4908 9.74962C12.4796 9.74962 12.4684 9.75193 12.4581 9.75641C12.5398 9.75641 12.6379 9.75641 12.6379 9.75641Z" fill="#F41934"/>
<path d="M12.4746 9.70712C12.4849 9.70264 12.496 9.70033 12.5073 9.70033C12.5185 9.70033 12.5296 9.70264 12.5399 9.70712C12.5762 9.71491 12.6099 9.73169 12.638 9.7559V9.61769C12.6113 9.60953 12.5829 9.60953 12.5563 9.61769C12.5351 9.61025 12.5121 9.61025 12.4909 9.61769V9.73964L12.4746 9.70712Z" fill="#F41934"/>
</g>
<defs>
<clipPath id="clip0_101_1576">
<rect width="24.6954" height="16.4636" fill="white" transform="translate(0.384277)"/>
</clipPath>
</defs>
</svg>
