<svg width="25" height="17" viewBox="0 0 25 17" fill="none" xmlns="http://www.w3.org/2000/svg">
<g clip-path="url(#clip0_101_1733)">
<path d="M25.0002 0.0577393H0.30481V16.4061H25.0002V0.0577393Z" fill="white"/>
<path d="M24.976 0H0.304871V1.29239H24.976V0Z" fill="#CE1C31"/>
<path d="M24.9759 2.5271H0.30481V3.81949H24.9759V2.5271Z" fill="#CE1C31"/>
<path d="M24.9759 5.0542H0.30481V6.34659H24.9759V5.0542Z" fill="#CE1C31"/>
<path d="M24.9759 7.58936H0.30481V8.88175H24.9759V7.58936Z" fill="#CE1C31"/>
<path d="M24.9759 10.1166H0.30481V11.409H24.9759V10.1166Z" fill="#CE1C31"/>
<path d="M24.9759 12.6444H0.30481V13.9368H24.9759V12.6444Z" fill="#CE1C31"/>
<path d="M24.9759 15.1715H0.30481V16.4639H24.9759V15.1715Z" fill="#CE1C31"/>
<path d="M12.5353 0H0.304871V8.8821H12.5353V0Z" fill="#3A3870"/>
<path d="M1.34744 0.337646L1.46061 0.699845H1.83246L1.53336 0.930335L1.64653 1.29253L1.34744 1.06204L1.04835 1.29253L1.16152 0.930335L0.862427 0.699845H1.23427L1.34744 0.337646Z" fill="white"/>
<path d="M2.3501 1.2511L2.46327 1.6133H2.83511L2.53602 1.83556L2.64919 2.19775L2.3501 1.9755L2.051 2.19775L2.17226 1.83556L1.86508 1.6133H2.23693L2.3501 1.2511Z" fill="white"/>
<path d="M2.3501 3.02917L2.46327 3.39137H2.83511L2.53602 3.61363L2.64919 3.98406L2.3501 3.75357L2.051 3.98406L2.17226 3.61363L1.86508 3.39137H2.23693L2.3501 3.02917Z" fill="white"/>
<path d="M2.3501 4.80725L2.46327 5.17768H2.83511L2.53602 5.39994L2.64919 5.76214L2.3501 5.53988L2.051 5.76214L2.17226 5.39994L1.86508 5.17768H2.23693L2.3501 4.80725Z" fill="white"/>
<path d="M2.3501 6.59338L2.46327 6.95558H2.83511L2.53602 7.17784L2.64919 7.54004L2.3501 7.31778L2.051 7.54004L2.17226 7.17784L1.86508 6.95558H2.23693L2.3501 6.59338Z" fill="white"/>
<path d="M4.39526 1.2511L4.50843 1.6133H4.88028L4.58119 1.83556L4.69436 2.19775L4.39526 1.9755L4.09617 2.19775L4.20934 1.83556L3.91025 1.6133H4.28209L4.39526 1.2511Z" fill="white"/>
<path d="M4.39526 3.02917L4.50843 3.39137H4.88028L4.58119 3.61363L4.69436 3.98406L4.39526 3.75357L4.09617 3.98406L4.20934 3.61363L3.91025 3.39137H4.28209L4.39526 3.02917Z" fill="white"/>
<path d="M4.39526 4.80725L4.50843 5.17768H4.88028L4.58119 5.39994L4.69436 5.76214L4.39526 5.53988L4.09617 5.76214L4.20934 5.39994L3.91025 5.17768H4.28209L4.39526 4.80725Z" fill="white"/>
<path d="M4.39526 6.59338L4.50843 6.95558H4.88028L4.58119 7.17784L4.69436 7.54004L4.39526 7.31778L4.09617 7.54004L4.20934 7.17784L3.91025 6.95558H4.28209L4.39526 6.59338Z" fill="white"/>
<path d="M6.44043 1.2511L6.5536 1.6133H6.92544L6.62635 1.83556L6.73952 2.19775L6.44043 1.9755L6.14134 2.19775L6.25451 1.83556L5.95541 1.6133H6.32726L6.44043 1.2511Z" fill="white"/>
<path d="M6.44043 3.02917L6.5536 3.39137H6.92544L6.62635 3.61363L6.73952 3.98406L6.44043 3.75357L6.14134 3.98406L6.25451 3.61363L5.95541 3.39137H6.32726L6.44043 3.02917Z" fill="white"/>
<path d="M6.44043 4.80725L6.5536 5.17768H6.92544L6.62635 5.39994L6.73952 5.76214L6.44043 5.53988L6.14134 5.76214L6.25451 5.39994L5.95541 5.17768H6.32726L6.44043 4.80725Z" fill="white"/>
<path d="M6.44043 6.59338L6.5536 6.95558H6.92544L6.62635 7.17784L6.73952 7.54004L6.44043 7.31778L6.14134 7.54004L6.25451 7.17784L5.95541 6.95558H6.32726L6.44043 6.59338Z" fill="white"/>
<path d="M8.48556 1.2511L8.59873 1.6133H8.97058L8.67149 1.83556L8.78466 2.19775L8.48556 1.9755L8.18647 2.19775L8.29964 1.83556L8.00055 1.6133H8.36431L8.48556 1.2511Z" fill="white"/>
<path d="M8.48556 3.02917L8.59873 3.39137H8.97058L8.67149 3.61363L8.78466 3.98406L8.48556 3.75357L8.18647 3.98406L8.29964 3.61363L8.00055 3.39137H8.36431L8.48556 3.02917Z" fill="white"/>
<path d="M8.48556 4.80725L8.59873 5.17768H8.97058L8.67149 5.39994L8.78466 5.76214L8.48556 5.53988L8.18647 5.76214L8.29964 5.39994L8.00055 5.17768H8.36431L8.48556 4.80725Z" fill="white"/>
<path d="M8.48556 6.59338L8.59873 6.95558H8.97058L8.67149 7.17784L8.78466 7.54004L8.48556 7.31778L8.18647 7.54004L8.29964 7.17784L8.00055 6.95558H8.36431L8.48556 6.59338Z" fill="white"/>
<path d="M10.5223 1.2511L10.6436 1.6133H11.0074L10.7083 1.83556L10.8295 2.19775L10.5223 1.9755L10.2232 2.19775L10.3364 1.83556L10.0373 1.6133H10.4092L10.5223 1.2511Z" fill="white"/>
<path d="M10.5223 3.02917L10.6436 3.39137H11.0074L10.7083 3.61363L10.8295 3.98406L10.5223 3.75357L10.2232 3.98406L10.3364 3.61363L10.0373 3.39137H10.4092L10.5223 3.02917Z" fill="white"/>
<path d="M10.5223 4.80725L10.6436 5.17768H11.0074L10.7083 5.39994L10.8295 5.76214L10.5223 5.53988L10.2232 5.76214L10.3364 5.39994L10.0373 5.17768H10.4092L10.5223 4.80725Z" fill="white"/>
<path d="M10.5223 6.59338L10.6436 6.95558H11.0074L10.7083 7.17784L10.8295 7.54004L10.5223 7.31778L10.2232 7.54004L10.3364 7.17784L10.0373 6.95558H10.4092L10.5223 6.59338Z" fill="white"/>
<path d="M1.34744 2.12378L1.46061 2.48598H1.83246L1.53336 2.70824L1.64653 3.07043L1.34744 2.84818L1.04835 3.07043L1.16152 2.70824L0.862427 2.48598H1.23427L1.34744 2.12378Z" fill="white"/>
<path d="M1.34744 3.90173L1.46061 4.26393H1.83246L1.53336 4.48619L1.64653 4.84839L1.34744 4.62613L1.04835 4.84839L1.16152 4.48619L0.862427 4.26393H1.23427L1.34744 3.90173Z" fill="white"/>
<path d="M1.34744 5.67981L1.46061 6.04201H1.83246L1.53336 6.26427L1.64653 6.62647L1.34744 6.40421L1.04835 6.62647L1.16152 6.26427L0.862427 6.04201H1.23427L1.34744 5.67981Z" fill="white"/>
<path d="M1.34744 7.45789L1.46061 7.82008H1.83246L1.53336 8.05057L1.64653 8.41277L1.34744 8.19051L1.04835 8.41277L1.16152 8.05057L0.862427 7.82008H1.23427L1.34744 7.45789Z" fill="white"/>
<path d="M3.36044 0.337646L3.47361 0.699845H3.84546L3.54637 0.930335L3.65954 1.29253L3.36044 1.06204L3.06135 1.29253L3.17452 0.930335L2.87543 0.699845H3.24727L3.36044 0.337646Z" fill="white"/>
<path d="M3.36044 2.12378L3.47361 2.48598H3.84546L3.54637 2.70824L3.65954 3.07043L3.36044 2.84818L3.06135 3.07043L3.17452 2.70824L2.87543 2.48598H3.24727L3.36044 2.12378Z" fill="white"/>
<path d="M3.36044 3.90173L3.47361 4.26393H3.84546L3.54637 4.48619L3.65954 4.84839L3.36044 4.62613L3.06135 4.84839L3.17452 4.48619L2.87543 4.26393H3.24727L3.36044 3.90173Z" fill="white"/>
<path d="M3.36044 5.67981L3.47361 6.04201H3.84546L3.54637 6.26427L3.65954 6.62647L3.36044 6.40421L3.06135 6.62647L3.17452 6.26427L2.87543 6.04201H3.24727L3.36044 5.67981Z" fill="white"/>
<path d="M3.36044 7.45789L3.47361 7.82008H3.84546L3.54637 8.05057L3.65954 8.41277L3.36044 8.19051L3.06135 8.41277L3.17452 8.05057L2.87543 7.82008H3.24727L3.36044 7.45789Z" fill="white"/>
<path d="M5.42972 0.337646L5.54289 0.699845H5.91473L5.61564 0.930335L5.72881 1.29253L5.42972 1.06204L5.13062 1.29253L5.2438 0.930335L4.9447 0.699845H5.31655L5.42972 0.337646Z" fill="white"/>
<path d="M5.42972 2.12378L5.54289 2.48598H5.91473L5.61564 2.70824L5.72881 3.07043L5.42972 2.84818L5.13062 3.07043L5.2438 2.70824L4.9447 2.48598H5.31655L5.42972 2.12378Z" fill="white"/>
<path d="M5.42972 3.90173L5.54289 4.26393H5.91473L5.61564 4.48619L5.72881 4.84839L5.42972 4.62613L5.13062 4.84839L5.2438 4.48619L4.9447 4.26393H5.31655L5.42972 3.90173Z" fill="white"/>
<path d="M5.42972 5.67981L5.54289 6.04201H5.91473L5.61564 6.26427L5.72881 6.62647L5.42972 6.40421L5.13062 6.62647L5.2438 6.26427L4.9447 6.04201H5.31655L5.42972 5.67981Z" fill="white"/>
<path d="M5.42972 7.45789L5.54289 7.82008H5.91473L5.61564 8.05057L5.72881 8.41277L5.42972 8.19051L5.13062 8.41277L5.2438 8.05057L4.9447 7.82008H5.31655L5.42972 7.45789Z" fill="white"/>
<path d="M7.4588 0.337646L7.57197 0.699845H7.94382L7.64472 0.930335L7.75789 1.29253L7.4588 1.06204L7.15971 1.29253L7.27288 0.930335L6.97379 0.699845H7.34563L7.4588 0.337646Z" fill="white"/>
<path d="M7.4588 2.12378L7.57197 2.48598H7.94382L7.64472 2.70824L7.75789 3.07043L7.4588 2.84818L7.15971 3.07043L7.27288 2.70824L6.97379 2.48598H7.34563L7.4588 2.12378Z" fill="white"/>
<path d="M7.4588 3.90173L7.57197 4.26393H7.94382L7.64472 4.48619L7.75789 4.84839L7.4588 4.62613L7.15971 4.84839L7.27288 4.48619L6.97379 4.26393H7.34563L7.4588 3.90173Z" fill="white"/>
<path d="M7.4588 5.67981L7.57197 6.04201H7.94382L7.64472 6.26427L7.75789 6.62647L7.4588 6.40421L7.15971 6.62647L7.27288 6.26427L6.97379 6.04201H7.34563L7.4588 5.67981Z" fill="white"/>
<path d="M7.4588 7.45789L7.57197 7.82008H7.94382L7.64472 8.05057L7.75789 8.41277L7.4588 8.19051L7.15971 8.41277L7.27288 8.05057L6.97379 7.82008H7.34563L7.4588 7.45789Z" fill="white"/>
<path d="M9.48788 0.337646L9.60914 0.699845H9.9729L9.67381 0.930335L9.78698 1.29253L9.48788 1.06204L9.18879 1.29253L9.30196 0.930335L9.00287 0.699845H9.37471L9.48788 0.337646Z" fill="white"/>
<path d="M9.48788 2.12378L9.60914 2.48598H9.9729L9.67381 2.70824L9.78698 3.07043L9.48788 2.84818L9.18879 3.07043L9.30196 2.70824L9.00287 2.48598H9.37471L9.48788 2.12378Z" fill="white"/>
<path d="M9.48788 3.90173L9.60914 4.26393H9.9729L9.67381 4.48619L9.78698 4.84839L9.48788 4.62613L9.18879 4.84839L9.30196 4.48619L9.00287 4.26393H9.37471L9.48788 3.90173Z" fill="white"/>
<path d="M9.48788 5.67981L9.60914 6.04201H9.9729L9.67381 6.26427L9.78698 6.62647L9.48788 6.40421L9.18879 6.62647L9.30196 6.26427L9.00287 6.04201H9.37471L9.48788 5.67981Z" fill="white"/>
<path d="M9.48788 7.45789L9.60914 7.82008H9.9729L9.67381 8.05057L9.78698 8.41277L9.48788 8.19051L9.18879 8.41277L9.30196 8.05057L9.00287 7.82008H9.37471L9.48788 7.45789Z" fill="white"/>
<path d="M11.5572 0.337646L11.6784 0.699845H12.0422L11.7431 0.930335L11.8563 1.29253L11.5572 1.06204L11.2581 1.29253L11.3793 0.930335L11.0721 0.699845H11.444L11.5572 0.337646Z" fill="white"/>
<path d="M11.5572 2.12378L11.6784 2.48598H12.0422L11.7431 2.70824L11.8563 3.07043L11.5572 2.84818L11.2581 3.07043L11.3793 2.70824L11.0721 2.48598H11.444L11.5572 2.12378Z" fill="white"/>
<path d="M11.5572 3.90173L11.6784 4.26393H12.0422L11.7431 4.48619L11.8563 4.84839L11.5572 4.62613L11.2581 4.84839L11.3793 4.48619L11.0721 4.26393H11.444L11.5572 3.90173Z" fill="white"/>
<path d="M11.5572 5.67981L11.6784 6.04201H12.0422L11.7431 6.26427L11.8563 6.62647L11.5572 6.40421L11.2581 6.62647L11.3793 6.26427L11.0721 6.04201H11.444L11.5572 5.67981Z" fill="white"/>
<path d="M11.5572 7.45789L11.6784 7.82008H12.0422L11.7431 8.05057L11.8563 8.41277L11.5572 8.19051L11.2581 8.41277L11.3793 8.05057L11.0721 7.82008H11.444L11.5572 7.45789Z" fill="white"/>
</g>
<defs>
<clipPath id="clip0_101_1733">
<rect width="24.6954" height="16.4636" fill="white" transform="translate(0.304688)"/>
</clipPath>
</defs>
</svg>
